<?xml version="1.0" encoding="utf-8"?>
<!-- Generator: Adobe Illustrator 28.3.0, SVG Export Plug-In . SVG Version: 6.00 Build 0)  -->
<!DOCTYPE svg PUBLIC "-//W3C//DTD SVG 1.1//EN" "http://www.w3.org/Graphics/SVG/1.1/DTD/svg11.dtd" [
	<!ENTITY ns_extend "http://ns.adobe.com/Extensibility/1.0/">
	<!ENTITY ns_ai "http://ns.adobe.com/AdobeIllustrator/10.0/">
	<!ENTITY ns_graphs "http://ns.adobe.com/Graphs/1.0/">
	<!ENTITY ns_vars "http://ns.adobe.com/Variables/1.0/">
	<!ENTITY ns_imrep "http://ns.adobe.com/ImageReplacement/1.0/">
	<!ENTITY ns_sfw "http://ns.adobe.com/SaveForWeb/1.0/">
	<!ENTITY ns_custom "http://ns.adobe.com/GenericCustomNamespace/1.0/">
	<!ENTITY ns_adobe_xpath "http://ns.adobe.com/XPath/1.0/">
]>
<svg version="1.1" xmlns:x="&ns_extend;" xmlns:i="&ns_ai;" xmlns:graph="&ns_graphs;"
	 xmlns="http://www.w3.org/2000/svg" xmlns:xlink="http://www.w3.org/1999/xlink" x="0px" y="0px" viewBox="0 0 314 125"
	 style="enable-background:new 0 0 314 125;" xml:space="preserve">
<style type="text/css">
	.st0{fill:none;}
	.st1{fill:#154273;}
	.st2{fill:#FFFFFF;}
</style>
<metadata>
	<sfw  xmlns="&ns_sfw;">
		<slices></slices>
		<sliceSourceBounds  bottomLeftOrigin="true" height="125" width="314" x="0" y="-125"></sliceSourceBounds>
	</sfw>
</metadata>
<g id="Laag_1">
	<g>
		<rect class="st0" width="314" height="125"/>
		<rect class="st1" width="50" height="100"/>
	</g>
	<path class="st2" d="M25.9,77.4H25v-2.4h0.9V77.4z M29.8,66.7H29v-2.4h0.9V66.7z M13.7,62.6c-0.1,0-0.5,0-0.5,0.1
		c0,0.1,0.2,0,0.5,0.1c0.7,0.1,1,0.5,1.5,0.5c0.4,0,0.9-0.3,0.7-0.9c0-0.1-0.1-0.1-0.1,0c-0.1,0.3-0.4,0.5-0.8,0.5
		C14.5,62.7,14.4,62.6,13.7,62.6z M8.9,65c0.1,0.1,0.9,1.2-0.4,1.6c-0.1,0-0.1,0.1,0,0.1c0.9,0.4,1.4-0.3,1.4-0.3
		c0.5,1.1-0.3,1.7-0.3,1.7c0.1,0.2,0.5,0.5,1.2,0.7c0.3-0.1,0.6-0.4,0.8-0.8c0,0,0.2,0.5,0,0.9c1.9,0.2,2.6-1.3,4-1.1
		c0,0,0.1,0,0.1-0.1c0-0.9-0.6-2.7-2.4-3c-1.8-0.3-1.3-1.1-1.3-1.1c0.8,0,1.2,0.3,1.2,0.3c0.1-0.2-0.1-0.5-0.1-0.5
		c0.1-0.1,0.1-0.4,0.1-0.4c-0.9,0-1.1-0.2-1.1-0.2c-0.1-0.5,0.2-1.2,1.5-0.5c0.3-0.3,0.3-0.7,0.3-0.7c0.1,0,0.2-0.2,0.2-0.3
		c0-0.2-1-0.8-1.3-0.9c-0.1-0.3-0.5-0.8-1.7-0.6c-0.6,0.1-1-0.1-0.8-0.4c0-0.1-0.1-0.1-0.1,0c-0.1,0.1-0.3,0.5,0.2,0.8
		c0.5,0.3,0.6,0.8,0.6,0.9c0,0.1-0.1,0.1-0.2,0c-0.3-0.9-1.5-1.1-2.3-0.6c0,0.5,0.6,0.8,0.9,0.8c0.2,0,0.4-0.2,0.4-0.4
		c0-0.1,0.1-0.1,0.1,0c0.1,0.3-0.4,1-1.1,0.6c-0.7,0.7-0.4,1.7-0.4,2c0.1,0.6-0.2,1.2-0.7,0.9c0,0-0.1,0-0.1,0
		C7.8,64.9,8.3,65.3,8.9,65z M13,61.2c-0.3,0.4-0.9,0.3-1-0.3C12.7,60.9,13,60.9,13,61.2z M35.1,62.7c-0.4,0-0.7-0.2-0.8-0.5
		c0-0.1-0.1-0.1-0.1,0c-0.2,0.6,0.3,0.9,0.7,0.9c0.5,0,0.8-0.4,1.5-0.5c0.3-0.1,0.5,0,0.5-0.1c0-0.1-0.5-0.1-0.5-0.1
		C35.6,62.6,35.5,62.7,35.1,62.7z M42.2,64.5C42.2,64.4,42.2,64.4,42.2,64.5c-0.6,0.2-0.9-0.4-0.8-1c0.1-0.3,0.4-1.3-0.4-2
		c-0.7,0.4-1.2-0.3-1.1-0.6c0-0.1,0.1-0.1,0.1,0c0,0.2,0.2,0.4,0.4,0.4c0.3,0,0.8-0.3,0.9-0.8c-0.8-0.5-2-0.3-2.3,0.6
		c0,0.1-0.2,0.1-0.2,0c0-0.1,0-0.6,0.6-0.9c0.5-0.2,0.3-0.6,0.2-0.8c-0.1-0.1-0.2,0-0.1,0c0.2,0.3-0.2,0.5-0.8,0.4
		c-1.2-0.2-1.6,0.3-1.7,0.6c-0.3,0.1-1.3,0.6-1.3,0.9c0,0.1,0.1,0.2,0.2,0.3c0,0,0,0.4,0.3,0.7c1.3-0.8,1.6-0.1,1.5,0.5
		c0,0-0.2,0.2-1.1,0.2c0,0,0,0.3,0.1,0.4c0,0-0.2,0.2-0.1,0.5c0,0,0.4-0.3,1.2-0.3c0,0,0.5,0.7-1.3,1.1c-1.8,0.3-2.4,2.1-2.4,3
		c0,0,0,0.1,0.1,0.1c1.5-0.3,2.1,1.2,4,1.1c-0.2-0.4,0-0.9,0-0.9c0.1,0.4,0.5,0.7,0.8,0.8c0.7-0.2,1.1-0.5,1.2-0.7
		c0,0-0.7-0.6-0.2-1.7c0,0,0.5,0.7,1.4,0.3c0.1,0,0.1-0.1,0-0.1c-1.3-0.4-0.4-1.5-0.4-1.6C41.7,65.3,42.2,64.9,42.2,64.5z
		 M38.1,60.9c-0.1,0.6-0.7,0.7-1,0.3C37.1,60.9,37.4,60.9,38.1,60.9z M24.7,50.2c0,0.2,0.1,0.3,0.1,0.4c0.1,0.2,0.1,0.2,0,0.3
		c-0.1,0.1-0.1,0.1-0.3,0c-0.1-0.1-0.2-0.1-0.4-0.1c-0.3,0-0.4,0.2-0.4,0.3c0,0.2,0.1,0.3,0.4,0.3c0.2,0,0.3-0.1,0.4-0.1
		c0.2-0.1,0.2-0.1,0.3,0c0.1,0.1,0,0.6-0.1,1c-0.5,0.1-0.7,0.5-0.7,0.7c0,0.5,0.6,0.9,0.9,1c0.3-0.2,0.9-0.5,0.9-1
		c0-0.2-0.2-0.6-0.7-0.7c-0.1-0.4-0.1-1-0.1-1c0.1-0.1,0.1-0.1,0.3,0c0.1,0.1,0.2,0.1,0.4,0.1c0.3,0,0.4-0.2,0.4-0.3
		c0-0.2-0.1-0.3-0.4-0.3c-0.2,0-0.3,0.1-0.4,0.1c-0.2,0.1-0.2,0.1-0.3,0c-0.1-0.1-0.1-0.1,0-0.3c0.1-0.1,0.1-0.2,0.1-0.4
		c0-0.3-0.2-0.4-0.3-0.4C24.9,49.8,24.7,49.9,24.7,50.2z M25,54.3c-0.4,0-0.7,0.3-0.7,0.7c0,0.4,0.3,0.7,0.7,0.7
		c0.4,0,0.7-0.3,0.7-0.7C25.7,54.6,25.4,54.3,25,54.3z M25,60.7c2.7,0,4.2,0.5,4.2,0.5c0-1.3,0-2.1,0.8-2c-0.4-1.1,1.4-1.6,1.4-3.1
		c0-1-0.7-1.1-0.9-1.1c-0.6,0-0.5,0.4-1,0.4c-0.1,0-0.1,0-0.1,0c0,0.2,0.1,0.5,0.4,0.5c0.3,0,0.3-0.3,0.6-0.3c0.1,0,0.2,0.1,0.2,0.4
		c0,0.6-0.4,1.3-0.9,1.9c-0.1-0.2-0.3-0.2-0.4-0.2c-0.3,0-0.5,0.3-0.5,0.7c0,0.1,0,0.2,0.1,0.4c-0.2,0.1-0.3,0.1-0.4,0.1
		c-0.2,0-0.5-0.1-0.5-0.6c0-1.1,1.4-2,1.4-3.4c0-0.6-0.4-1.3-1.3-1.3c-1,0-0.8,0.9-1.6,0.9c0,0-0.1,0-0.1,0c0,0.1,0.1,0.5,0.6,0.5
		c0.5,0,0.6-0.8,1-0.8c0.2,0,0.4,0.1,0.4,0.6c0,0.4-0.2,1.1-0.5,1.8c-0.1-0.1-0.3-0.2-0.4-0.2c-0.4,0-0.6,0.3-0.6,0.8
		c0,0.3,0.1,0.5,0.3,0.7c-0.2,0.3-0.4,0.5-0.7,0.5c-0.6,0-0.8-0.3-0.8-0.7c0-0.4,0.7-0.5,0.7-1.1c0-0.4-0.3-0.6-0.5-0.6
		c-0.3,0-0.4,0.2-0.4,0.2c0,0-0.2-0.2-0.4-0.2c-0.3,0-0.5,0.2-0.5,0.6c0,0.6,0.7,0.7,0.7,1.1c0,0.4-0.3,0.7-0.8,0.7
		c-0.3,0-0.5-0.2-0.7-0.5c0.2-0.2,0.3-0.4,0.3-0.7c0-0.4-0.3-0.8-0.6-0.8c-0.2,0-0.3,0.1-0.4,0.2c-0.3-0.7-0.5-1.3-0.5-1.8
		c0-0.5,0.2-0.6,0.4-0.6c0.4,0,0.5,0.8,1,0.8c0.4,0,0.6-0.5,0.6-0.5c0,0,0,0-0.1,0c-0.8,0-0.7-0.9-1.6-0.9c-0.9,0-1.3,0.6-1.3,1.3
		c0,1.4,1.4,2.3,1.4,3.4c0,0.5-0.3,0.6-0.5,0.6c-0.1,0-0.3-0.1-0.4-0.1c0-0.1,0.1-0.2,0.1-0.4c0-0.4-0.3-0.7-0.5-0.7
		c-0.2,0-0.3,0.1-0.4,0.2c-0.5-0.5-0.9-1.2-0.9-1.9c0-0.3,0.1-0.4,0.2-0.4c0.2,0,0.2,0.3,0.6,0.3c0.2,0,0.4-0.3,0.4-0.5
		c0,0-0.1,0-0.1,0c-0.5,0-0.4-0.4-1-0.4c-0.2,0-0.9,0.1-0.9,1.1c0,1.5,1.8,1.9,1.4,3.1c0.8-0.1,0.8,0.6,0.8,2
		C20.9,61.2,22.4,60.7,25,60.7z M20.1,62.7c-0.7,0.2-1.2,0.3-1.5,0.4c0-0.3,0.1-0.6,0.4-0.7c0,0,0-0.1,0-0.1c-0.6-0.4-1,0.4-1,0.4
		c-0.2,0-0.6,0.1-0.6,0.4c0,0.9-2.1,1.4-2.6,1.5c0.9,0.3,1.2,1.4,1.2,1.4c0.6-0.6,1.4-1.2,1.5-1.2c0.2,0,0.2,0.2,0.2,0.3
		c0,0,0,0.1,0.1,0c0.3-0.5,0.2-0.6,0.1-0.7c0-0.1,0-0.5,0.5-0.5v6.2l-0.2,0c-0.1,0-1-0.7-2.1-1.5c-1-0.7-1.6-0.3-2.8,0.4
		c-1.5,0.8-3.1,0.1-3.1,0.1c-1.3,1-1.8,3.7-1.8,3.7c-0.3,0.1-0.7,0.2-1.1,0.2c-1,0-1.2-0.6-1.2-1c0-1.6,2-2.2,2-3.8
		c0-0.4-0.2-1.9-2.1-1.9c-0.2,0-1.7,0-1.7,0c-0.7,0-0.9-0.5-1-0.7c0-0.1-0.1,0-0.1,0c0.1,0.1-0.1,0.3-0.1,0.7c0,0.6,0.4,1,1.1,1
		c0.3,0,0.6-0.1,0.7-0.1c0.1,0,0.1,0,0.1,0.1c-0.3,0.4-0.3,1-0.2,1.2c0,0,0.1,0,0.1,0c0.2-0.7,0.8-1.3,1.6-1.3c1,0,1,0.9,1,1.1
		c0,1.3-2.2,2.2-2.2,3.9c0,1.8,1.9,2.1,2.9,1.9c-0.1,1.8-2.1,2.4-2.1,1.1c0-0.1,0-0.1-0.1,0c-0.3,0.6-0.2,1.2,0.6,1.3
		c0.1,0,0,0,0,0.1c-0.8,0.5-0.4,2.4-0.3,3c0.1,0.8-0.8,0.7-0.8,0.7c0,0-0.1,0,0,0.1C6.2,81.1,7,80.5,7,80.5c0.5,0.2,0.2,0.6-0.2,0.9
		c-0.1,0-0.1,0.1,0,0.1c0.1,0,0.9,0.1,1.1-0.6c0.4,0.4,0.9,0.3,1,0.2c0.2-0.1,0.9-0.4,1,0.5c0,0.1,0,0,0.1,0c0.6-0.7,0-1.2-0.4-1.3
		c0,0,0.5-0.4,0.9,0.1c0,0,0.1,0,0.1,0c0-0.9-0.7-1-1.2-0.6c0-0.1-0.2-0.6,0.6-0.6c0,0,0.1,0,0-0.1c-0.6-0.6-1.1-0.1-1.2,0.1
		c-0.3,0.3-0.9,0.2-1,0.2c0.2-3.3,3.1-2.1,3.5-3.7c0-0.1,0.1-0.1,0.1,0c0.1,0.4,1.1,0.4,1.3-0.3c0,0,0-0.1,0,0
		c-0.8,0.8-2.7-1.8-0.1-3.9c2.2-1.8,4.2-0.8,4.9-0.2c0,0.3-0.1,0.3-0.2,0.4c0,0,0,0,0,0.1c0.2,0.1,0.5,0.1,0.6-0.1
		c0.5,0.3,0.1,0.7-0.1,0.9c0,0,0,0.1,0,0.1c0.4,0.1,0.8-0.4,0.8-0.6l0.1,0v1.9c0,2.7,3.1,3,6.4,5.3c3.4-2.3,6.4-2.6,6.4-5.3v-1.9
		l0.1,0c0,0.3,0.4,0.7,0.8,0.6c0,0,0.1,0,0-0.1c-0.2-0.1-0.6-0.5-0.1-0.9c0.1,0.2,0.4,0.2,0.6,0.1c0.1,0,0-0.1,0-0.1
		c-0.1,0-0.3-0.1-0.2-0.4c0.7-0.6,2.7-1.6,4.9,0.2c2.6,2.1,0.7,4.7-0.1,3.9c0,0,0,0,0,0c0.2,0.8,1.2,0.7,1.3,0.3c0,0,0-0.1,0.1,0
		c0.4,1.6,3.3,0.4,3.5,3.7c-0.1,0-0.7,0.1-1-0.2c-0.1-0.1-0.6-0.7-1.2-0.1c0,0,0,0.1,0,0.1c0.8,0,0.6,0.5,0.6,0.6
		c-0.5-0.4-1.3-0.3-1.2,0.6c0,0.1,0,0.1,0.1,0c0.4-0.5,0.9-0.2,0.9-0.1c-0.4,0.1-1,0.5-0.4,1.3c0,0,0.1,0.1,0.1,0
		c0.1-0.9,0.9-0.6,1-0.5c0.1,0.1,0.7,0.2,1-0.2c0.1,0.7,1,0.6,1.1,0.6c0.1,0,0.1,0,0-0.1c-0.4-0.2-0.7-0.7-0.2-0.9
		c0,0,0.7,0.6,1.3-0.1c0.1-0.1,0-0.1,0-0.1c-0.1,0-0.9,0.1-0.8-0.7c0-0.6,0.5-2.5-0.3-3c0,0-0.1-0.1,0-0.1c0.8-0.2,0.9-0.7,0.6-1.3
		c0-0.1-0.1-0.1-0.1,0c-0.1,1.3-2.1,0.7-2.1-1.1c1.1,0.3,2.9-0.1,2.9-1.9c0-1.7-2.2-2.7-2.2-3.9c0-0.2,0-1.1,1-1.1
		c0.8,0,1.5,0.6,1.6,1.3c0,0,0,0,0.1,0c0.1-0.2,0.1-0.8-0.2-1.2c0,0,0-0.1,0.1-0.1c0.1,0.1,0.4,0.1,0.7,0.1c0.7,0,1.1-0.4,1.1-1
		c0-0.4-0.1-0.6-0.1-0.7c0-0.1,0-0.1-0.1,0c-0.1,0.2-0.3,0.7-1,0.7c0,0-1.4,0-1.7,0c-1.9,0-2.1,1.5-2.1,1.9c0,1.5,2,2.2,2,3.8
		c0,0.4-0.2,1-1.2,1c-0.4,0-0.9-0.1-1.1-0.2c0,0-0.5-2.8-1.8-3.7c0,0-1.6,0.8-3.1-0.1c-1.2-0.6-1.7-1.1-2.8-0.4
		c-1,0.7-1.9,1.5-2.1,1.5l-0.2,0v-6.2c0.5-0.1,0.5,0.4,0.5,0.5c0,0.1-0.2,0.3,0.1,0.7c0,0,0.1,0,0.1,0c0-0.1,0.1-0.3,0.2-0.3
		c0.2,0,0.9,0.6,1.5,1.2c0,0,0.4-1.1,1.2-1.4c-0.5-0.1-2.6-0.6-2.6-1.5c0-0.3-0.3-0.4-0.6-0.4c0,0-0.4-0.9-1-0.4c0,0,0,0.1,0,0.1
		c0.3,0.1,0.4,0.4,0.4,0.7c-0.6-0.2-3.3-0.9-6.4-0.9c-1.5,0-2.9,0.2-4,0.4v2.1h-0.9V62.7L20.1,62.7 M14.4,84.6
		c-0.2-0.1-0.4-0.2-0.4-0.5v-1.3c-0.4-0.1-1.4-0.5-3.5-0.5c-1.7,0-2.3,0.4-2.3,0.5l-0.5,2.5c0,0,0.7-0.6,3.2-0.5
		c3,0.2,6.2,2,6.2,0.1v-1.1C14.7,83.8,14.4,84.5,14.4,84.6z M33,83.8v1.1c0,1.9,3.1,0.1,6.2-0.1c2.5-0.2,3.2,0.5,3.2,0.5l-0.5-2.5
		c0-0.1-0.6-0.5-2.3-0.5c-2.1,0-3.1,0.4-3.5,0.5v1.3c0,0.3-0.2,0.5-0.4,0.5C35.7,84.5,35.3,83.8,33,83.8z M25,82.6
		c4.9,0,9.8,0.3,10.5,1c0.1,0.1,0.1,0,0.1,0l0-2.6c0-0.8-5.1-1.2-10.5-1.2c-5.4,0-10.5,0.4-10.5,1.2l0,2.6c0,0,0,0.1,0.1,0
		C15.2,82.9,20.2,82.6,25,82.6z M20.7,70.5l-0.5-0.1l0,0.1l-0.6-0.3c0,0,0.4,0,0.5,0c0,0,0.1,0,0-0.1c-0.2-0.2-0.4-0.4-0.4-0.4
		s0.2,0.1,0.6,0.2c0,0,0.1,0,0,0c-0.2-0.2-0.4-0.6-0.4-0.6s0.5,0.3,0.6,0.4c0,0,0.1,0,0,0c-0.1-0.3-0.3-0.6-0.3-0.6l0.5,0.5
		c0,0,0,0,0,0c0-0.2-0.1-0.6-0.1-0.6l0.4,0.5c0,0,0,0,0.1,0c0-0.1,0-0.6,0-0.6s0.2,0.4,0.2,0.5c0,0,0,0,0.1,0c0-0.1,0.2-0.5,0.2-0.5
		l0,0.6l-0.1,0l-0.1,0.7c0.7-0.2,1.7-1.4,2.4-1.4c0.8,0,1.1,1,2.7,0.5c0.4,0.6,0.5,1.1,0.7,1.8c0.6,0.6,1.4,0.4,1.4-0.2
		c0-0.8-0.9-1-0.9-1.8c0-0.4,0.3-0.9,1-0.9c0.4,0,0.9,0.2,1.2,0.2c0.4,0,0.5-0.3,0.5-0.4c0-0.1,0.1-0.1,0.1,0c0,0.1,0,0.2,0,0.4
		c0,0.5-0.8,0.6-0.9,0.5c0,0-0.1,0,0,0c0.1,0.1,0.1,0.4,0,0.6c0,0,0,0,0,0c-0.1-0.4-0.5-0.8-0.9-0.8c-0.1,0-0.4,0.1-0.4,0.4
		c0,0.5,1,0.9,1,1.9c0,1-1,1.3-2,1c0,1,1.5,1.5,1.5,0.9c0,0,0,0,0,0c0.2,0.3,0.1,0.5-0.2,0.6c0.3,0.1,0.3,0.6,0.4,0.9
		c0.1,0.5,0.6,0.2,0.6,0.2c0,0,0,0,0,0c-0.2,0.5-0.7,0.3-0.7,0.3c-0.3,0.2,0.1,0.3,0.3,0.4c0,0,0,0,0,0c-0.2,0.1-0.5,0.2-0.7-0.1
		c-0.1,0.3-0.4,0.3-0.5,0.3c-0.2,0-0.3,0.2-0.3,0.4c0,0,0,0,0,0c-0.4-0.3-0.2-0.6,0-0.7c0,0-0.3-0.1-0.5,0.2c0,0,0,0,0,0
		c-0.2-0.5,0.2-0.7,0.5-0.5c0-0.1-0.2-0.3-0.6-0.2c0,0,0,0,0,0c0.1-0.2,0.3-0.4,0.6-0.2c0.2,0.1,0.5-0.1,0.5-0.1
		c-0.6-1.3-1.9-0.2-2.2-1.2c0,0,0,0,0,0c-0.1,0.2-0.6,0.2-0.7-0.2c0,0,0,0,0,0c0.1,0.1,0.3,0.2,0.5-0.2c0.1-0.2,0.2-0.5,0.2-0.7
		c0-0.8-0.8-2.1-2-2.1c-0.8,0-1.6,0.3-2.2,0.7l0.6,0.1c-0.1,0.6-0.6,0.9-1.1,0.8l0.1-0.7c-0.1,0-0.3,0.1-0.4,0.3c0,0,0,0,0,0
		c-0.1-0.4,0.2-0.6,0.3-0.6c0,0,0,0,0,0c-0.3,0-0.4,0.2-0.5,0.3c0,0,0,0,0,0C20.6,70.8,20.6,70.6,20.7,70.5z M22.4,75
		c-0.2,0.3-0.4,0-0.7,0c-0.3,0-0.3,0.2-0.3,0.3c0,0,0,0,0,0c-0.3-0.4,0-0.6,0.2-0.7c0,0-0.3-0.2-0.5,0c0,0,0,0,0,0
		c0-0.5,0.4-0.6,0.7-0.3c0-0.2-0.1-0.3-0.3-0.3c0,0,0,0,0,0c0.1-0.1,0.2-0.1,0.3-0.1c0.3,0,0.3,0.4,0.5,0.4c0.3,0,0.7-0.4,0.7-0.4
		c0,0-0.3-0.8-0.2-1.2c0,0,0,0,0,0c-0.1,0.1-0.5,0.1-0.5-0.4c0,0,0,0,0,0c0.2,0.2,0.4,0,0.5-0.2c0.1-0.1,0.8-1.2,1.8-1.2
		c0.2,0,0.5,0.1,0.7,0.3c-0.3,0.4,0,0.8,0.2,0.7c0,0,0,0,0,0c-1.3,0.5-1.8,0.7-1.8,1.7c0,0.6,0.2,0.9,0.5,0.8c0,0,0,0,0,0
		c-0.1,0.1-0.3,0.2-0.4,0.2c-0.3,0-0.3-0.1-0.4-0.1c-0.1,0-0.6,0.3-0.6,0.5c0,0.1,0.1,0.2,0.2,0.3c0,0,0,0,0,0
		C22.9,75.3,22.5,75.3,22.4,75z M25.7,64.7c-0.4,0-0.6,0.1-0.6,0.2C25.3,65.1,25.5,65.1,25.7,64.7z M24.3,65.7c0.3-0.1,0.6,0,0.6,0
		c0,0,0,0.1,0,0.1c-0.6,0.1-0.6,0.3-1,0.3c-0.2,0-0.5-0.2-0.4-0.6c0,0,0,0,0.1,0C23.6,65.6,23.8,65.8,24.3,65.7z M16.7,78.5
		c0.4,0.5,0.8,0,1.3,0c0.2,0,0.5,0.1,0.6,0.6c0,0,0,0,0,0c0.5-0.8-0.1-1.2-0.4-1.2c0.1-0.1,0.6-0.4,1,0.1c0,0,0.1,0,0.1,0
		c0-0.9-0.7-1-1.2-0.6c-0.1-0.4,0.2-0.6,0.5-0.6c0,0,0.1,0,0-0.1c-0.6-0.7-1.1,0.2-1.2,0.3c-0.3,0.3-1.2-0.3-1.5-0.7
		c0,0,0.8-0.8,0.8-1.6c0,0,0-0.1,0-0.1c0,0,0,0,0,0c0.1,0,0.2,0.1,0.3,0.1c0.2,0,0.5-0.1,0.5-0.7c0,0,0,0,0,0
		c-0.1,0.1-0.2,0.2-0.3,0.2c-0.6,0-2-2.2-3.6-2.2c-0.4,0-1.2,0.3-1.6,0.7c0.2,0.1,0.2,0.3,0.2,0.5c0,0.3-0.2,0.4-0.5,0.5
		c0,0,0,0,0,0.1c0.8,0.3,2.3,0.9,2.6,1.2c0.4,0.3,0.3,1,0.1,1.9c-0.2,0.9-0.7,0.7-0.9,0.7c0,0,0,0,0,0c0.2,0.3,0.5,0.4,0.7,0.4
		c0.4,0,0.6-0.3,0.8-0.3c0.4,0,1.1,0.5,1.1,0.9c0,0.2-0.2,0.4-0.4,0.6c0,0,0,0,0,0C15.9,79.1,16.6,79.2,16.7,78.5z M34.4,79.1
		C34.4,79.1,34.4,79.1,34.4,79.1c-0.2-0.2-0.4-0.4-0.4-0.6c0-0.4,0.8-0.9,1.1-0.9c0.2,0,0.4,0.3,0.8,0.3c0.2,0,0.5-0.1,0.7-0.4
		c0,0,0,0,0,0c-0.2,0-0.6,0.1-0.9-0.7c-0.2-0.9-0.3-1.5,0.1-1.9c0.3-0.3,1.8-0.8,2.6-1.2c0,0,0,0,0-0.1c-0.2-0.1-0.4-0.2-0.5-0.5
		c0-0.2,0-0.4,0.2-0.5c-0.4-0.4-1.2-0.7-1.6-0.7c-1.6,0-2.9,2.2-3.6,2.2c-0.1,0-0.2,0-0.3-0.2c0,0,0,0,0,0c0,0.7,0.3,0.7,0.5,0.7
		c0.1,0,0.2,0,0.3-0.1c0,0,0,0,0,0c0,0,0,0.1,0,0.1c0,0.8,0.8,1.6,0.8,1.6c-0.4,0.4-1.3,1-1.5,0.7c-0.1-0.1-0.6-1-1.2-0.3
		c0,0,0,0.1,0,0.1c0.4,0,0.6,0.2,0.5,0.6C31.6,77,30.9,77,30.9,78c0,0,0,0,0.1,0c0.3-0.5,0.9-0.2,1-0.1c-0.4,0.1-1,0.5-0.4,1.2
		c0,0,0,0,0,0c0.1-0.5,0.4-0.6,0.6-0.6c0.5,0,0.9,0.5,1.3,0C33.5,79.2,34.2,79.1,34.4,79.1z M21.4,66.6c-0.1,0.1-0.2,0-0.3,0
		c0,0,0,0,0,0c0,0.1,0.2,0.4,0.4,0.4c0.1,0,0.3-0.1,0.3-0.1c0,0,0.9,0.3,1.4,0.4c-0.2,0.2-0.3,0.5-0.3,0.8c-0.4-0.2-1.9-1-1.9-1
		l-0.5,0.6c-0.1,0.1-0.4-0.2-0.4-0.3l0.4-0.5c-0.1-0.1-0.4,0-0.5,0c0,0,0,0,0,0c0-0.1,0.2-0.4,0.7-0.3c0-0.3-0.4-0.2-0.5-0.2
		c0,0,0,0,0,0c0.1-0.1,0.4-0.4,0.8-0.2l0.2-0.2l-0.3-0.3l0.2-0.3l0.2,0.3l1.7-2.4c0-0.1,0.4-0.2,0.5-0.2c0,0.1,0,0.5,0,0.5l-1.7,2.4
		l0.4,0.1l-0.2,0.3l-0.4-0.2L21.4,66.6z M27.5,66.2c0,0.2,0.1,0.5,0.4,0.4c0,0,0,0,0,0c0,0.2-0.5,0.5-0.7,0.2
		c-0.2,0.4-0.1,0.7,0.2,0.9c0,0,0,0,0,0.1C27.3,68,27,68,26.8,67.6c-0.3,0.2-0.3,0.7-0.1,0.9c0,0-0.9,0.5-1.6,0.1
		c-0.5-0.2-0.9-0.6-1.6-0.5c0.1-0.9,0.6-1.2,1.4-1.3c0.7-0.1,0.8-0.4,0.7-0.7c-0.2-0.1-0.7,0.2-0.7,0.2c-0.1-0.1,0-0.3,0-0.3
		c0-0.1-0.1-0.2-0.1-0.2c0.5,0,0.6-0.1,0.6-0.1c0.1-0.5-0.4-0.6-0.8-0.3c-0.2-0.2-0.2-0.4-0.2-0.4c-0.1,0-0.1-0.1-0.1-0.1
		c0-0.1,0.6-0.4,0.7-0.5c0-0.2,0.2-0.4,0.8-0.3c0.1-0.2,0-0.7-0.1-0.9c0,0,0-0.1,0.1,0c0.2,0.1,0.4,0.6,0.6,0.6c0,0,0.7-0.4,0.7-0.3
		c0,0,0.1,0.8,0.1,0.8c0.1,0.1,0.6,0,0.8,0.1c0.1,0,0.1,0.1,0,0.1c-0.2,0-0.7,0.3-0.8,0.4C27.7,65.3,27.5,66,27.5,66.2z"/>
</g>
<g id="Isolatiemodus">
	<g>
		<path class="st2" d="M61.9,64.5c0.6-0.2,0.9-0.5,0.9-1.2v-7.6l-1-0.3V55c1-0.2,1.9-0.2,3.1-0.2c2.3,0,3.5,0.9,3.5,2.6
			c0,1.5-0.9,2.5-2.2,3l2.2,2.9c0.4,0.5,0.9,0.9,1.4,1.1v0.3c-0.3,0.2-0.7,0.3-1.2,0.3c-0.7,0-1.1-0.3-1.7-1.1l-2-3.1h-0.7v3.3
			l1,0.2v0.3c-0.5,0.2-1.1,0.3-1.8,0.3c-0.5,0-1,0-1.5-0.2V64.5z M64.7,60c1.2,0,2.2-0.8,2.2-2.4c0-1.3-0.8-2-2.1-2
			c-0.2,0-0.5,0-0.7,0.1V60H64.7z"/>
		<path class="st2" d="M70.7,64.5c0.4-0.2,0.8-0.5,0.8-0.8v-5.2l-1-0.4v-0.3c0.7-0.2,1.4-0.3,1.8-0.3h0.5l-0.1,0.8v5.9l0.9,0.2v0.3
			c-0.5,0.2-1,0.3-1.8,0.3c-0.4,0-0.8,0-1.2-0.1V64.5z M71.3,55.1c0-0.5,0.3-0.9,0.9-0.9c0.4,0,0.8,0.3,0.8,0.8c0,0.5-0.4,1-0.9,1
			C71.7,56,71.3,55.6,71.3,55.1z"/>
		<path class="st2" d="M75.4,58.4l-1-0.4v-0.3c0.7-0.2,1.4-0.3,1.9-0.3h0.5l-0.1,0.9v7c0,2.5-0.8,3.3-1.8,3.3
			c-0.3,0-0.7-0.1-0.9-0.4v-0.2c0.7,0,1.3-0.8,1.3-2.4V58.4z M75.2,55.1c0-0.5,0.3-0.9,0.9-0.9c0.4,0,0.8,0.3,0.8,0.8
			c0,0.5-0.4,1-0.9,1C75.5,56,75.2,55.6,75.2,55.1z"/>
		<path class="st2" d="M78.3,64.5c0.4-0.2,0.8-0.5,0.8-0.8v-9l-1-0.4v-0.3c0.7-0.2,1.4-0.3,1.9-0.3h0.5l-0.1,0.9v6.2l0.9-0.7
			c0.8-0.7,1.6-1.8,1.6-2.5c0.3-0.1,0.5-0.1,0.8-0.1c0.2,0,0.4,0,0.6,0.1c0,0.7-0.7,1.7-2.1,2.7l-0.5,0.4l2.4,2.9
			c0.4,0.5,0.8,0.7,1.1,0.7v0.3c-0.3,0.2-0.7,0.3-1.1,0.3c-0.4,0-0.8-0.2-1.1-0.6L80.4,61v3.1l0.8,0.2v0.3c-0.6,0.2-1,0.2-1.8,0.2
			c-0.4,0-0.8,0-1.2-0.1V64.5z"/>
		<path class="st2" d="M86,63.1c0.7,0.7,1.4,1,2.2,1c0.9,0,1.3-0.4,1.3-1c0-0.5-0.3-0.9-1.3-1.3l-0.8-0.3c-0.9-0.4-1.4-1-1.4-1.9
			c0-1.2,1.1-2.3,2.7-2.3c1.2,0,1.7,0.4,1.7,1c0,0.2,0,0.4-0.1,0.7c-0.5-0.3-1.2-0.6-1.8-0.6c-1,0-1.5,0.4-1.5,1
			c0,0.6,0.3,0.9,1.2,1.2l0.8,0.3c1.1,0.4,1.5,1,1.5,1.9c0,1.2-1.1,2.3-2.9,2.3c-1.4,0-2-0.4-2-1.3C85.9,63.5,85.9,63.3,86,63.1z"/>
		<path class="st2" d="M95.5,57.3c1.9,0,3.4,1.4,3.4,3.6c0,2.6-1.8,4.2-3.6,4.2c-1.9,0-3.4-1.3-3.4-3.6
			C91.8,58.9,93.5,57.3,95.5,57.3z M95.3,64.1c1,0,2.1-1,2.1-3.1c0-1.8-1-2.8-2.1-2.8c-1.1,0-2.1,1.1-2.1,3.1
			C93.2,63.1,94.2,64.1,95.3,64.1z"/>
		<path class="st2" d="M100,64.5c0.4-0.2,0.8-0.5,0.8-0.8v-5.2l-1-0.4v-0.3c0.7-0.2,1.4-0.3,1.9-0.3h0.4v1.1h0l0.4-0.5
			c0.4-0.4,0.8-0.7,1.4-0.7c0.5,0,0.8,0.2,0.8,0.7c0,0.3-0.1,0.6-0.2,0.9c-0.3-0.2-0.6-0.4-1-0.4c-0.5,0-0.9,0.2-1.4,0.6v4.9
			l1.1,0.2v0.3c-0.5,0.2-1,0.3-1.9,0.3c-0.4,0-0.9,0-1.2-0.1V64.5z"/>
		<path class="st2" d="M106.6,62.5L106.6,62.5c-0.7-0.3-1.4-1.1-1.4-2.2c0-1.7,1.4-3.1,3.1-3.1c0.6,0,1.4,0.3,1.7,0.5
			c0.3-0.3,0.9-0.5,1.4-0.5c0.3,0,0.5,0,0.7,0.1l-0.1,1c-0.5-0.1-1.1-0.2-1.7-0.2v0c0.5,0.4,0.9,1.1,0.9,1.7c0,1.8-1.5,3-3.1,3
			c-0.3,0-0.7-0.1-1-0.2c-0.2,0.1-0.5,0.5-0.5,0.7c0,0.5,0.4,0.7,1,0.7l2.2,0c1.3,0,2,0.6,2,1.7c0,1.5-1.6,2.7-3.8,2.7
			c-2,0-3-0.8-3-1.8c0-0.8,0.6-1.5,1.5-1.7v0c-0.6-0.2-0.9-0.6-0.9-1.2C105.5,63.3,106,62.7,106.6,62.5z M108.1,67.8
			c1.5,0,2.5-0.7,2.5-1.5c0-0.6-0.4-0.9-1.1-0.9h-2.5c-0.5,0.2-0.8,0.7-0.8,1.2C106.2,67.2,106.8,67.8,108.1,67.8z M109.8,60
			c0-1.3-0.7-1.9-1.5-1.9c-0.9,0-1.6,0.8-1.6,2.2c0,1.3,0.7,1.9,1.5,1.9C109,62.2,109.8,61.5,109.8,60z"/>
		<path class="st2" d="M116.7,60.7v-0.4c0-1.7-0.4-2-1.4-2c-0.9,0-1.7,0.4-2.3,1c0-0.2,0-0.3,0-0.5c0-1,0.7-1.6,2.5-1.6
			c1.6,0,2.5,0.8,2.5,2.1c0,0.3,0,1.1-0.1,1.6l0,2.5c0.1,0.3,0.3,0.6,0.6,0.8c-0.2,0.3-0.7,0.6-1.1,0.8c-0.3-0.2-0.5-0.4-0.7-0.8
			c-0.4,0.4-1.3,0.7-2.1,0.7c-1.2,0-2-0.7-2-1.7C112.6,61.9,114.1,60.7,116.7,60.7z M115.2,64.1c0.5,0,1.1-0.2,1.5-0.4v-2.2
			c-1.8,0-2.7,0.7-2.7,1.6C114,63.7,114.4,64.1,115.2,64.1z"/>
		<path class="st2" d="M119.7,64.5c0.4-0.2,0.8-0.5,0.8-0.8v-5.2l-1-0.4v-0.3c0.7-0.2,1.4-0.3,1.9-0.3h0.4v0.8
			c0.5-0.5,1.4-0.9,2.3-0.9c1.3,0,2.2,0.8,2.2,2.4v4.3l0.8,0.2v0.3c-0.4,0.2-1,0.3-1.6,0.3c-0.3,0-0.7,0-1-0.1v-0.3
			c0.4-0.2,0.6-0.5,0.6-1v-3c0-1.5-0.6-2.1-1.6-2.1c-0.6,0-1.3,0.2-1.6,0.5v5.2l0.9,0.2v0.3c-0.5,0.2-1,0.3-1.8,0.3
			c-0.4,0-0.8,0-1.2-0.1V64.5z"/>
		<path class="st2" d="M128.2,64.5c0.4-0.2,0.8-0.5,0.8-0.8v-5.2l-1-0.4v-0.3c0.7-0.2,1.4-0.3,1.8-0.3h0.5l-0.1,0.8v5.9l0.9,0.2v0.3
			c-0.5,0.2-1,0.3-1.8,0.3c-0.4,0-0.8,0-1.2-0.1V64.5z M128.9,55.1c0-0.5,0.3-0.9,0.9-0.9c0.4,0,0.8,0.3,0.8,0.8c0,0.5-0.4,1-0.9,1
			C129.2,56,128.9,55.6,128.9,55.1z"/>
		<path class="st2" d="M132.4,63.1c0.7,0.7,1.4,1,2.2,1c0.9,0,1.3-0.4,1.3-1c0-0.5-0.3-0.9-1.3-1.3l-0.8-0.3c-0.9-0.4-1.4-1-1.4-1.9
			c0-1.2,1.1-2.3,2.7-2.3c1.2,0,1.7,0.4,1.7,1c0,0.2,0,0.4-0.1,0.7c-0.5-0.3-1.2-0.6-1.8-0.6c-1,0-1.5,0.4-1.5,1
			c0,0.6,0.3,0.9,1.2,1.2l0.8,0.3c1.1,0.4,1.5,1,1.5,1.9c0,1.2-1.1,2.3-2.9,2.3c-1.4,0-2-0.4-2-1.3
			C132.2,63.5,132.3,63.3,132.4,63.1z"/>
		<path class="st2" d="M142.2,60.7v-0.4c0-1.7-0.4-2-1.4-2c-0.9,0-1.7,0.4-2.3,1c0-0.2,0-0.3,0-0.5c0-1,0.7-1.6,2.5-1.6
			c1.6,0,2.5,0.8,2.5,2.1c0,0.3,0,1.1-0.1,1.6l0,2.5c0.1,0.3,0.3,0.6,0.6,0.8c-0.2,0.3-0.7,0.6-1.1,0.8c-0.3-0.2-0.5-0.4-0.7-0.8
			c-0.4,0.4-1.3,0.7-2.1,0.7c-1.2,0-2-0.7-2-1.7C138.1,61.9,139.6,60.7,142.2,60.7z M140.7,64.1c0.5,0,1.1-0.2,1.5-0.4v-2.2
			c-1.8,0-2.7,0.7-2.7,1.6C139.5,63.7,139.9,64.1,140.7,64.1z"/>
		<path class="st2" d="M145.8,60.5l0-2.1H145V58l1.7-1.7l0.5-0.1l-0.1,1.4h2l-0.1,0.8h-2l0,2c0,0.7,0,1.2,0,1.8
			c0,1.3,0.4,1.7,0.9,1.7c0.5,0,0.8-0.2,1.1-0.4l0.2,0.1c-0.1,0.9-0.6,1.4-1.7,1.4c-1.2,0-1.8-0.7-1.8-2.2
			C145.7,62.1,145.7,61.2,145.8,60.5z"/>
		<path class="st2" d="M150.2,64.5c0.4-0.2,0.8-0.5,0.8-0.8v-5.2l-1-0.4v-0.3c0.7-0.2,1.4-0.3,1.8-0.3h0.5l-0.1,0.8v5.9l0.9,0.2v0.3
			c-0.5,0.2-1,0.3-1.8,0.3c-0.4,0-0.8,0-1.2-0.1V64.5z M150.8,55.1c0-0.5,0.3-0.9,0.9-0.9c0.4,0,0.8,0.3,0.8,0.8c0,0.5-0.4,1-0.9,1
			C151.2,56,150.8,55.6,150.8,55.1z"/>
		<path class="st2" d="M157.3,57.3c1.7,0,2.7,1.1,2.7,2.9c0,0.3,0,0.6,0,1h-4.6c0,1.7,1,2.7,2.3,2.7c0.8,0,1.6-0.3,2.2-0.7
			c0,0.1,0.1,0.2,0.1,0.4c0,0.7-1,1.3-2.7,1.3c-1.8,0-3.2-1.4-3.2-3.6C154.1,58.7,155.7,57.3,157.3,57.3z M158.8,60.4
			c0-1.5-0.7-2.2-1.6-2.2c-0.9,0-1.8,1-1.8,2.2H158.8z"/>
		<path class="st2" d="M163.9,58.2l-0.6-0.4v-0.4h3v0.4l-0.9,0.4L167,63h0l1.7-4.9l-0.9-0.4v-0.4h2.4v0.4l-0.4,0.4l-2.8,6.8l-0.5,0
			L163.9,58.2z"/>
		<path class="st2" d="M174.1,57.3c1.9,0,3.4,1.4,3.4,3.6c0,2.6-1.8,4.2-3.6,4.2c-1.9,0-3.4-1.3-3.4-3.6
			C170.4,58.9,172.2,57.3,174.1,57.3z M173.9,64.1c1,0,2.1-1,2.1-3.1c0-1.8-1-2.8-2.1-2.8c-1.1,0-2.1,1.1-2.1,3.1
			C171.8,63.1,172.8,64.1,173.9,64.1z"/>
		<path class="st2" d="M182.3,57.3c1.9,0,3.4,1.4,3.4,3.6c0,2.6-1.8,4.2-3.6,4.2c-1.9,0-3.4-1.3-3.4-3.6
			C178.7,58.9,180.4,57.3,182.3,57.3z M182.2,64.1c1,0,2.1-1,2.1-3.1c0-1.8-1-2.8-2.1-2.8c-1.1,0-2.1,1.1-2.1,3.1
			C180.1,63.1,181.1,64.1,182.2,64.1z"/>
		<path class="st2" d="M186.8,64.5c0.4-0.2,0.8-0.5,0.8-0.8v-5.2l-1-0.4v-0.3c0.7-0.2,1.4-0.3,1.9-0.3h0.4v1.1h0l0.4-0.5
			c0.4-0.4,0.8-0.7,1.4-0.7c0.5,0,0.8,0.2,0.8,0.7c0,0.3-0.1,0.6-0.2,0.9c-0.3-0.2-0.6-0.4-1-0.4c-0.5,0-0.9,0.2-1.4,0.6v4.9
			l1.1,0.2v0.3c-0.5,0.2-1,0.3-1.9,0.3c-0.4,0-0.9,0-1.2-0.1V64.5z"/>
		<path class="st2" d="M61.9,82.1c0.5-0.2,0.9-0.4,0.9-1.2v-7.6l-1-0.2v-0.3c0.6-0.2,1.2-0.2,1.8-0.2c0.6,0,1,0,1.4,0.2v0.3
			c-0.7,0.2-0.9,0.5-0.9,1.1v7.7l1,0.2v0.3c-0.5,0.2-1.1,0.3-1.8,0.3c-0.6,0-1,0-1.4-0.2V82.1z"/>
		<path class="st2" d="M66.4,82.1c0.4-0.2,0.8-0.5,0.8-0.8V76l-1-0.4v-0.3c0.7-0.2,1.4-0.3,1.9-0.3h0.4v0.8c0.5-0.5,1.4-0.9,2.3-0.9
			c1.3,0,2.2,0.8,2.2,2.4v4.3l0.8,0.2v0.3c-0.4,0.2-1,0.3-1.6,0.3c-0.3,0-0.7,0-1-0.1v-0.3c0.4-0.2,0.6-0.5,0.6-1v-3
			c0-1.5-0.6-2.1-1.6-2.1c-0.6,0-1.3,0.2-1.6,0.5v5.2l0.9,0.2v0.3c-0.5,0.2-1,0.3-1.8,0.3c-0.4,0-0.8,0-1.2-0.1V82.1z"/>
		<path class="st2" d="M74.9,82.1c0.4-0.2,0.8-0.5,0.8-0.8v-5.2h-0.9v-0.5l0.9-0.3V74c0-1.6,1.1-2.8,3-2.8c1.1,0,1.5,0.3,1.5,0.7
			c0,0.1,0,0.4-0.1,0.5c-0.6-0.2-1.4-0.3-2.1-0.3c-0.6,0-1.1,0.6-1.1,1.7c0,0.2,0,1.1,0.1,1.4h2l-0.2,0.8H77v5.6l1,0.2v0.3
			c-0.5,0.2-1.1,0.3-1.9,0.3c-0.4,0-0.8,0-1.2-0.1V82.1z"/>
		<path class="st2" d="M83,74.9c1.9,0,3.4,1.4,3.4,3.6c0,2.6-1.8,4.2-3.6,4.2c-1.9,0-3.4-1.3-3.4-3.6C79.3,76.5,81.1,74.9,83,74.9z
			 M82.8,81.7c1,0,2.1-1,2.1-3.1c0-1.8-1-2.8-2.1-2.8c-1.1,0-2.1,1.1-2.1,3.1C80.8,80.7,81.7,81.7,82.8,81.7z"/>
		<path class="st2" d="M87.5,82.1c0.4-0.2,0.8-0.5,0.8-0.8V76l-1-0.4v-0.3c0.7-0.2,1.4-0.3,1.9-0.3h0.4v1.1h0l0.4-0.5
			c0.4-0.5,0.8-0.7,1.4-0.7c0.5,0,0.8,0.2,0.8,0.7c0,0.3-0.1,0.6-0.2,0.9c-0.3-0.2-0.6-0.4-1-0.4c-0.5,0-0.9,0.2-1.4,0.6v4.9
			l1.1,0.2v0.3c-0.5,0.2-1,0.3-1.9,0.3c-0.4,0-0.9,0-1.2-0.1V82.1z"/>
		<path class="st2" d="M93.1,82.1c0.4-0.2,0.8-0.5,0.8-0.8V76l-1-0.4v-0.3c0.7-0.2,1.4-0.3,1.9-0.3h0.4v0.8c0.5-0.5,1.4-0.9,2.3-0.9
			c0.7,0,1.4,0.4,1.8,0.9c0.5-0.5,1.5-0.9,2.4-0.9c1.3,0,2.2,0.8,2.2,2.5v4.3l0.8,0.2v0.3c-0.4,0.2-1,0.3-1.6,0.3
			c-0.3,0-0.7,0-1-0.1v-0.3c0.4-0.2,0.6-0.5,0.6-1v-3c0-1.4-0.6-2-1.6-2c-0.6,0-1.1,0.1-1.5,0.4c0.1,0.3,0.1,0.8,0.1,1.2v4.2
			l0.8,0.2v0.3c-0.4,0.2-1,0.3-1.6,0.3c-0.3,0-0.7,0-1-0.1v-0.3c0.4-0.2,0.6-0.5,0.6-1v-2.9c0-1.7-0.5-2.2-1.5-2.2
			c-0.6,0-1.2,0.2-1.5,0.5v5.2l0.9,0.2v0.3c-0.5,0.2-1,0.3-1.8,0.3c-0.4,0-0.8,0-1.2-0.1V82.1z"/>
		<path class="st2" d="M109.6,78.3v-0.4c0-1.7-0.4-2-1.4-2c-0.9,0-1.7,0.4-2.3,1c0-0.2,0-0.3,0-0.5c0-1,0.7-1.6,2.5-1.6
			c1.6,0,2.5,0.8,2.5,2.1c0,0.3,0,1.1-0.1,1.6l0,2.5c0.1,0.3,0.3,0.6,0.6,0.8c-0.2,0.3-0.7,0.6-1.1,0.8c-0.3-0.2-0.5-0.4-0.7-0.8
			c-0.4,0.4-1.3,0.7-2.1,0.7c-1.2,0-2-0.7-2-1.7C105.5,79.5,107,78.3,109.6,78.3z M108.1,81.7c0.5,0,1.1-0.2,1.5-0.4v-2.2
			c-1.8,0-2.7,0.7-2.7,1.6C106.9,81.3,107.3,81.7,108.1,81.7z"/>
		<path class="st2" d="M113.2,78.1l0-2.1h-0.9v-0.5l1.7-1.7l0.5-0.1l-0.1,1.4h2l-0.1,0.8h-2l0,2c0,0.7,0,1.2,0,1.8
			c0,1.3,0.4,1.7,0.9,1.7c0.5,0,0.8-0.2,1.1-0.4l0.2,0.1c-0.1,0.9-0.6,1.4-1.7,1.4c-1.2,0-1.8-0.7-1.8-2.2
			C113.1,79.7,113.1,78.8,113.2,78.1z"/>
		<path class="st2" d="M117.6,82.1c0.4-0.2,0.8-0.5,0.8-0.8V76l-1-0.4v-0.3c0.7-0.2,1.4-0.3,1.8-0.3h0.5l-0.1,0.8v5.9l0.9,0.2v0.3
			c-0.5,0.2-1,0.3-1.8,0.3c-0.4,0-0.8,0-1.2-0.1V82.1z M118.2,72.7c0-0.5,0.3-0.9,0.9-0.9c0.4,0,0.8,0.3,0.8,0.8c0,0.5-0.4,1-0.9,1
			C118.6,73.6,118.2,73.2,118.2,72.7z"/>
		<path class="st2" d="M124.7,74.9c1.7,0,2.7,1.1,2.7,2.9c0,0.3,0,0.6,0,1h-4.6c0,1.7,1,2.7,2.3,2.7c0.8,0,1.6-0.3,2.2-0.7
			c0,0.1,0.1,0.2,0.1,0.4c0,0.7-1,1.3-2.7,1.3c-1.8,0-3.2-1.4-3.2-3.5C121.5,76.3,123.1,74.9,124.7,74.9z M126.2,78
			c0-1.5-0.7-2.2-1.6-2.2c-0.9,0-1.8,1-1.8,2.2H126.2z"/>
		<path class="st2" d="M128.5,82.1c0.4-0.2,0.8-0.5,0.8-0.8v-9l-1-0.4v-0.3c0.7-0.2,1.3-0.3,1.9-0.3h0.5l-0.1,0.9v3.7
			c0.6-0.5,1.3-0.9,2.2-0.9c1.3,0,2.2,0.8,2.2,2.4v4.3l0.8,0.2v0.3c-0.4,0.2-1,0.3-1.6,0.3c-0.3,0-0.7,0-1-0.1v-0.3
			c0.4-0.2,0.6-0.5,0.6-1v-3c0-1.5-0.6-2.1-1.6-2.1c-0.6,0-1.2,0.2-1.6,0.5v5.2l0.9,0.2v0.3c-0.5,0.2-1,0.3-1.8,0.3
			c-0.4,0-0.8,0-1.2-0.1V82.1z"/>
		<path class="st2" d="M137.4,76l-0.9-0.4v-0.3c0.7-0.2,1.3-0.3,1.7-0.3h0.5l-0.1,0.9v3.5c0,1.6,0.5,2.2,1.5,2.2
			c0.6,0,1.2-0.2,1.5-0.4v-5l-0.9-0.4v-0.3c0.7-0.2,1.3-0.3,1.8-0.3h0.5l-0.1,0.9v5.2c0.1,0.3,0.3,0.5,0.6,0.8
			c-0.2,0.2-0.7,0.5-1.1,0.7c-0.3-0.2-0.6-0.5-0.7-0.9c-0.4,0.4-1.3,0.8-2.2,0.8c-1.3,0-2.1-0.8-2.1-2.5V76z"/>
		<path class="st2" d="M144.8,82.1c0.4-0.2,0.8-0.5,0.8-0.8V76l-1-0.4v-0.3c0.7-0.2,1.4-0.3,1.8-0.3h0.5l-0.1,0.8v5.9l0.9,0.2v0.3
			c-0.5,0.2-1,0.3-1.8,0.3c-0.4,0-0.8,0-1.2-0.1V82.1z M145.5,72.7c0-0.5,0.3-0.9,0.9-0.9c0.4,0,0.8,0.3,0.8,0.8c0,0.5-0.4,1-0.9,1
			C145.9,73.6,145.5,73.2,145.5,72.7z"/>
		<path class="st2" d="M149,80.7c0.7,0.7,1.4,1,2.2,1c0.9,0,1.3-0.4,1.3-1c0-0.5-0.3-0.9-1.3-1.3l-0.8-0.3c-0.9-0.4-1.4-1-1.4-1.9
			c0-1.2,1.1-2.3,2.7-2.3c1.2,0,1.7,0.4,1.7,1c0,0.2,0,0.4-0.1,0.7c-0.5-0.3-1.2-0.6-1.8-0.6c-1,0-1.5,0.4-1.5,1
			c0,0.6,0.3,0.9,1.2,1.2l0.8,0.3c1.1,0.4,1.5,1,1.5,1.9c0,1.2-1.1,2.3-2.9,2.3c-1.4,0-2-0.4-2-1.3C148.9,81.1,148.9,80.9,149,80.7z
			"/>
		<path class="st2" d="M154.6,82.1c0.4-0.2,0.8-0.5,0.8-0.8v-9l-1-0.4v-0.3c0.7-0.2,1.3-0.3,1.9-0.3h0.5l-0.1,0.9v3.7
			c0.6-0.5,1.3-0.9,2.2-0.9c1.3,0,2.2,0.8,2.2,2.4v4.3l0.8,0.2v0.3c-0.4,0.2-1,0.3-1.6,0.3c-0.3,0-0.7,0-1-0.1v-0.3
			c0.4-0.2,0.6-0.5,0.6-1v-3c0-1.5-0.6-2.1-1.6-2.1c-0.6,0-1.2,0.2-1.6,0.5v5.2l0.9,0.2v0.3c-0.5,0.2-1,0.3-1.8,0.3
			c-0.4,0-0.8,0-1.2-0.1V82.1z"/>
		<path class="st2" d="M166.5,74.9c1.9,0,3.4,1.4,3.4,3.6c0,2.6-1.8,4.2-3.6,4.2c-1.9,0-3.4-1.3-3.4-3.6
			C162.9,76.5,164.6,74.9,166.5,74.9z M166.4,81.7c1,0,2.1-1,2.1-3.1c0-1.8-1-2.8-2.1-2.8c-1.1,0-2.1,1.1-2.1,3.1
			C164.3,80.7,165.3,81.7,166.4,81.7z"/>
		<path class="st2" d="M171.7,76l-0.9-0.4v-0.3c0.7-0.2,1.3-0.3,1.7-0.3h0.5l-0.1,0.9v3.5c0,1.6,0.5,2.2,1.5,2.2
			c0.6,0,1.2-0.2,1.5-0.4v-5l-0.9-0.4v-0.3c0.7-0.2,1.3-0.3,1.8-0.3h0.5l-0.1,0.9v5.2c0.1,0.3,0.3,0.5,0.6,0.8
			c-0.2,0.2-0.7,0.5-1.1,0.7c-0.3-0.2-0.6-0.5-0.7-0.9c-0.4,0.4-1.3,0.8-2.2,0.8c-1.3,0-2.1-0.8-2.1-2.5V76z"/>
		<path class="st2" d="M182.7,74.9c0.4,0,0.8,0,1.1,0.1v-2.7l-1.1-0.4v-0.3c0.7-0.2,1.5-0.3,1.9-0.3h0.5l-0.1,0.9V81
			c0.1,0.3,0.3,0.6,0.6,0.9c-0.3,0.3-0.7,0.5-1.1,0.7c-0.3-0.2-0.6-0.6-0.7-0.9c-0.5,0.5-1.3,0.9-2,0.9c-1.6,0-2.8-1.3-2.8-3.4
			C179,76.4,180.7,74.9,182.7,74.9z M183.8,81.1v-5.1c-0.3-0.1-0.7-0.2-1.1-0.2c-1.3,0-2.3,1-2.3,3.2c0,1.7,0.9,2.6,1.9,2.6
			C182.8,81.6,183.4,81.4,183.8,81.1z"/>
		<path class="st2" d="M186.9,82.1c0.4-0.2,0.8-0.5,0.8-0.8V76l-1-0.4v-0.3c0.7-0.2,1.4-0.3,1.8-0.3h0.5l-0.1,0.8v5.9l0.9,0.2v0.3
			c-0.5,0.2-1,0.3-1.8,0.3c-0.4,0-0.8,0-1.2-0.1V82.1z M187.6,72.7c0-0.5,0.3-0.9,0.9-0.9c0.4,0,0.8,0.3,0.8,0.8c0,0.5-0.4,1-0.9,1
			C187.9,73.6,187.6,73.2,187.6,72.7z"/>
		<path class="st2" d="M191.1,82.1c0.4-0.2,0.8-0.5,0.8-0.8V76l-1-0.4v-0.3c0.7-0.2,1.4-0.3,1.9-0.3h0.4v0.8
			c0.5-0.5,1.4-0.9,2.3-0.9c1.3,0,2.2,0.8,2.2,2.4v4.3l0.8,0.2v0.3c-0.4,0.2-1,0.3-1.6,0.3c-0.3,0-0.7,0-1-0.1v-0.3
			c0.4-0.2,0.6-0.5,0.6-1v-3c0-1.5-0.6-2.1-1.6-2.1c-0.6,0-1.3,0.2-1.6,0.5v5.2l0.9,0.2v0.3c-0.5,0.2-1,0.3-1.8,0.3
			c-0.4,0-0.8,0-1.2-0.1V82.1z"/>
		<path class="st2" d="M200.8,80.1L200.8,80.1c-0.7-0.3-1.4-1.1-1.4-2.2c0-1.7,1.4-3.1,3.1-3.1c0.6,0,1.4,0.3,1.7,0.5
			c0.3-0.3,0.9-0.5,1.4-0.5c0.3,0,0.5,0,0.7,0.1l-0.1,1c-0.5-0.1-1.1-0.2-1.7-0.2v0c0.5,0.4,0.9,1.1,0.9,1.7c0,1.8-1.5,3-3.1,3
			c-0.3,0-0.7-0.1-1-0.2c-0.2,0.1-0.5,0.5-0.5,0.7c0,0.5,0.4,0.7,1,0.7l2.2,0c1.3,0,2,0.6,2,1.7c0,1.5-1.6,2.7-3.8,2.7
			c-2,0-3-0.8-3-1.8c0-0.8,0.6-1.5,1.5-1.7v0c-0.6-0.2-0.9-0.6-0.9-1.2S200.2,80.3,200.8,80.1z M202.4,85.4c1.5,0,2.4-0.7,2.4-1.5
			c0-0.6-0.4-0.9-1.1-0.9h-2.5c-0.4,0.2-0.8,0.7-0.8,1.2C200.4,84.8,201.1,85.4,202.4,85.4z M204,77.6c0-1.3-0.7-1.9-1.5-1.9
			c-0.9,0-1.6,0.8-1.6,2.2c0,1.3,0.7,1.9,1.5,1.9C203.2,79.8,204,79.1,204,77.6z"/>
		<path class="st2" d="M61.1,99.7c0.3-0.1,0.5-0.3,0.5-0.6l1.9-8.3l-0.8-0.2v-0.4c0.4-0.1,1.1-0.2,1.6-0.2h0.5l1.4,7.4h0l2.6-7.4
			h0.4c0.4,0,1,0,1.5,0.1v0.4L70,90.7l0.4,8.6l0.9,0.2v0.3c-0.5,0.2-0.8,0.2-1.3,0.2c-0.6,0-1,0-1.4-0.2v-0.3
			c0.3-0.1,0.5-0.3,0.5-0.8L68.9,92h0l-2.8,8.1l-0.5,0L64.1,92h0l-1.5,7.3l0.9,0.2v0.3c-0.4,0.2-0.8,0.2-1.3,0.2
			c-0.4,0-0.8-0.1-1.1-0.2V99.7z"/>
		<path class="st2" d="M72.5,97.3l0.5-3.1l0.1-0.9L72.1,93v-0.3c0.5-0.2,1-0.3,1.6-0.3c0.3,0,0.5,0,0.7,0.1l-0.7,4.6
			c-0.1,0.5-0.1,1.3-0.1,1.7c0,0.5,0.2,0.7,0.6,0.9v0.3c-0.3,0.1-0.7,0.2-1.2,0.2c-0.5,0-0.7-0.3-0.7-0.7C72.3,99,72.4,98,72.5,97.3
			z M73.2,90.2c0-0.5,0.4-1,0.9-1c0.4,0,0.7,0.3,0.7,0.7c0,0.5-0.4,1-0.9,1C73.5,90.9,73.2,90.6,73.2,90.2z"/>
		<path class="st2" d="M76.4,93.3L75.4,93v-0.3c0.5-0.2,1-0.3,1.5-0.3c0.2,0,0.4,0,0.6,0.1l-0.5,2.4h0c0.7-1.6,1.7-2.5,2.8-2.5
			c0.7,0,1.2,0.5,1.2,1.4c0,0.5-0.1,1.3-0.2,2l-0.3,1.7c0,0.4-0.1,1-0.1,1.3c0,0.5,0.2,0.7,0.7,0.8v0.3c-0.4,0.2-0.8,0.3-1.2,0.3
			s-0.8-0.3-0.8-0.7c0-0.4,0.1-1.1,0.2-1.6l0.3-1.8c0.1-0.5,0.2-1.1,0.2-1.6c0-0.7-0.3-0.9-0.7-0.9c-0.9,0-2.1,1.7-2.2,3.9l-0.1,2.6
			h-1.3L76.4,93.3z"/>
		<path class="st2" d="M82.8,97.3l0.5-3.1l0.1-0.9L82.4,93v-0.3c0.5-0.2,1-0.3,1.5-0.3c0.3,0,0.5,0,0.7,0.1L84,97.1
			c-0.1,0.5-0.1,1.3-0.1,1.7c0,0.5,0.2,0.7,0.6,0.9v0.3c-0.3,0.1-0.7,0.2-1.2,0.2c-0.5,0-0.7-0.3-0.7-0.7C82.6,99,82.7,98,82.8,97.3
			z M83.5,90.2c0-0.5,0.4-1,0.9-1c0.4,0,0.7,0.3,0.7,0.7c0,0.5-0.4,1-0.9,1C83.8,90.9,83.5,90.6,83.5,90.2z"/>
		<path class="st2" d="M85.6,98.6c0.4,0.4,0.9,0.7,1.5,0.7c0.7,0,1.3-0.4,1.3-1.1c0-0.5-0.2-0.9-1-1.5l-0.5-0.5
			c-0.7-0.7-0.9-1.1-0.9-1.8c0-1,1-2,2.4-2c1.1,0,1.7,0.3,1.7,0.8c0,0.3-0.1,0.6-0.3,0.8c-0.4-0.5-1.1-0.8-1.7-0.8
			c-0.7,0-1,0.4-1,0.9c0,0.4,0.2,0.7,1,1.4l0.6,0.5c0.7,0.7,1,1.1,1,1.8c0,1.2-1.2,2.3-2.9,2.3c-1,0-1.4-0.3-1.4-0.9
			C85.3,99,85.4,98.8,85.6,98.6z"/>
		<path class="st2" d="M91.7,94.5l0.2-1c-0.3,0-0.5,0-0.9,0v-0.2c0.5-0.7,1.3-1.4,2.1-1.9h0.2l-0.3,1.3h0.4c0.4,0,0.8,0,1.2-0.1
			c0,0.7-0.4,1-1.3,1h-0.4l-0.3,1.6c-0.1,0.7-0.3,2-0.3,2.7c0,1,0.5,1.5,1.2,1.5c0.2,0,0.4,0,0.6-0.1v0.3c-0.1,0.4-0.7,0.7-1.4,0.7
			c-1,0-1.6-0.7-1.6-1.9C91.2,97.3,91.4,95.7,91.7,94.5z"/>
		<path class="st2" d="M98.2,92.4c1.1,0,1.7,0.5,1.7,1.6c0,1.8-1.9,2.9-3.7,2.9c0,1.9,0.5,2.3,1.4,2.3c0.6,0,1.4-0.3,1.7-0.8
			c0.1,0.1,0.2,0.2,0.2,0.4c0,0.7-1,1.4-2.2,1.4c-1.3,0-2.2-0.9-2.2-2.7C94.9,94,96.7,92.4,98.2,92.4z M98.6,94.2c0-0.7-0.3-1-0.7-1
			c-0.7,0-1.7,1.2-1.7,3C97.6,96.2,98.6,95.4,98.6,94.2z"/>
		<path class="st2" d="M101.6,93.3l-0.9-0.3v-0.3c0.5-0.2,1-0.3,1.5-0.3c0.2,0,0.4,0,0.7,0.1l-0.5,2.2h0l0.8-1.4
			c0.4-0.7,0.8-1,1.3-1c0.3,0,0.5,0.2,0.5,0.6c0,0.2-0.1,0.6-0.2,0.8c-0.2,0-0.3-0.1-0.5-0.1c-1,0-2,1.1-2.1,3.9l-0.1,2.3h-1.3
			L101.6,93.3z"/>
		<path class="st2" d="M105.9,97.3l0.5-3.1l0.1-0.9l-0.9-0.3v-0.3c0.5-0.2,1-0.3,1.5-0.3c0.3,0,0.5,0,0.7,0.1l-0.7,4.6
			c-0.1,0.5-0.1,1.3-0.1,1.7c0,0.5,0.2,0.7,0.6,0.9v0.3c-0.3,0.1-0.7,0.2-1.2,0.2c-0.5,0-0.7-0.3-0.7-0.7
			C105.7,99,105.8,98,105.9,97.3z M106.7,90.2c0-0.5,0.4-1,0.9-1c0.4,0,0.7,0.3,0.7,0.7c0,0.5-0.4,1-0.9,1
			C107,90.9,106.7,90.6,106.7,90.2z"/>
		<path class="st2" d="M112.1,92.4c1.1,0,1.7,0.5,1.7,1.6c0,1.8-1.9,2.9-3.7,2.9c0,1.9,0.5,2.3,1.4,2.3c0.6,0,1.4-0.3,1.7-0.8
			c0.1,0.1,0.2,0.2,0.2,0.4c0,0.7-1,1.4-2.2,1.4c-1.3,0-2.2-0.9-2.2-2.7C108.8,94,110.6,92.4,112.1,92.4z M112.5,94.2
			c0-0.7-0.3-1-0.7-1c-0.7,0-1.7,1.2-1.7,3C111.5,96.2,112.5,95.4,112.5,94.2z"/>
		<path class="st2" d="M117.2,93.2l-0.7-0.3v-0.3c0.5-0.2,0.8-0.2,1.3-0.2c0.2,0,0.4,0,0.6,0.1l0.3,6.3h0c1.1-1.4,2-3.5,2-5.1
			c0-0.4-0.2-0.7-0.6-0.9v-0.2c0.3-0.1,0.6-0.2,1-0.2c0.5,0,0.8,0.3,0.8,0.9c0,1.6-1.5,4.9-3,6.3c-0.3,0.3-0.5,0.4-0.8,0.6h-0.3
			L117.2,93.2z"/>
		<path class="st2" d="M122.5,97.4c0-3.2,1.8-5,3.9-5c0.5,0,1.2,0.1,1.7,0.2l-0.5,2.7c-0.2,0.8-0.3,2.2-0.4,2.9c0,1,0.2,1.2,0.7,1.3
			v0.3c-0.4,0.1-0.9,0.2-1.4,0.2c-0.2,0-0.4,0-0.7-0.1l0.4-2.3h0c-0.6,1.5-1.6,2.5-2.4,2.5C123.2,100.2,122.5,99.2,122.5,97.4z
			 M126.4,95.9l0.4-2.6c-0.2-0.1-0.6-0.1-0.8-0.1c-1.3,0-2.3,1.3-2.3,4c0,1.3,0.4,1.9,0.8,1.9C125.2,99.1,126.1,98.1,126.4,95.9z"/>
		<path class="st2" d="M130.1,93.3l-0.9-0.3v-0.3c0.5-0.2,1-0.3,1.5-0.3c0.2,0,0.4,0,0.6,0.1l-0.5,2.4h0c0.7-1.6,1.7-2.5,2.8-2.5
			c0.7,0,1.2,0.5,1.2,1.4c0,0.5-0.1,1.3-0.2,2l-0.3,1.7c0,0.4-0.1,1-0.1,1.3c0,0.5,0.2,0.7,0.7,0.8v0.3c-0.4,0.2-0.8,0.3-1.2,0.3
			s-0.8-0.3-0.8-0.7c0-0.4,0.1-1.1,0.2-1.6l0.3-1.8c0.1-0.5,0.2-1.1,0.2-1.6c0-0.7-0.3-0.9-0.7-0.9c-0.9,0-2.1,1.7-2.2,3.9l-0.1,2.6
			h-1.3L130.1,93.3z"/>
		<path class="st2" d="M138.5,99.7c0.3-0.1,0.6-0.4,0.6-0.8l0.9-8l-0.8-0.2v-0.3c0.9-0.2,2-0.2,3.1-0.2c1.8,0,2.9,0.8,2.9,2.1
			c0,1.3-1,2.4-2.4,2.7v0c1.3,0,2.3,0.9,2.3,2.1c0,2-1.7,3.2-4.2,3.2c-1,0-1.7,0-2.3-0.2V99.7z M141.2,99.3c1.4,0,2.4-0.9,2.4-2.1
			c0-1.2-0.8-1.8-2.9-1.8l-0.5,3.9C140.6,99.2,140.9,99.3,141.2,99.3z M143.7,92.2c0-0.9-0.7-1.5-1.8-1.5c-0.3,0-0.5,0-0.7,0
			l-0.5,3.8C142.6,94.6,143.7,93.7,143.7,92.2z"/>
		<path class="st2" d="M146.6,97.3l0.5-3.1l0.1-0.9l-0.9-0.3v-0.3c0.5-0.2,1-0.3,1.5-0.3c0.3,0,0.5,0,0.7,0.1l-0.7,4.6
			c-0.1,0.5-0.1,1.3-0.1,1.7c0,0.5,0.2,0.7,0.6,0.9v0.3c-0.3,0.1-0.7,0.2-1.2,0.2c-0.5,0-0.7-0.3-0.7-0.7
			C146.4,99,146.5,98,146.6,97.3z M147.4,90.2c0-0.5,0.4-1,0.9-1c0.4,0,0.7,0.3,0.7,0.7c0,0.5-0.4,1-0.9,1
			C147.6,90.9,147.4,90.6,147.4,90.2z"/>
		<path class="st2" d="M150.5,93.3l-0.9-0.3v-0.3c0.5-0.2,1-0.3,1.5-0.3c0.2,0,0.4,0,0.6,0.1l-0.5,2.4h0c0.7-1.6,1.7-2.5,2.8-2.5
			c0.7,0,1.2,0.5,1.2,1.4c0,0.5-0.1,1.3-0.2,2l-0.3,1.7c0,0.4-0.1,1-0.1,1.3c0,0.5,0.2,0.7,0.7,0.8v0.3c-0.4,0.2-0.8,0.3-1.2,0.3
			s-0.8-0.3-0.8-0.7c0-0.4,0.1-1.1,0.2-1.6l0.3-1.8c0.1-0.5,0.2-1.1,0.2-1.6c0-0.7-0.3-0.9-0.7-0.9c-0.9,0-2.1,1.7-2.2,3.9l-0.1,2.6
			h-1.3L150.5,93.3z"/>
		<path class="st2" d="M157.5,93.3l-0.9-0.3v-0.3c0.5-0.2,1-0.3,1.5-0.3c0.2,0,0.4,0,0.6,0.1l-0.5,2.4h0c0.7-1.6,1.7-2.5,2.8-2.5
			c0.7,0,1.2,0.5,1.2,1.4c0,0.5-0.1,1.3-0.2,2l-0.3,1.7c0,0.4-0.1,1-0.1,1.3c0,0.5,0.2,0.7,0.7,0.8v0.3c-0.4,0.2-0.8,0.3-1.2,0.3
			s-0.8-0.3-0.8-0.7c0-0.4,0.1-1.1,0.2-1.6l0.3-1.8c0.1-0.5,0.2-1.1,0.2-1.6c0-0.7-0.3-0.9-0.7-0.9c-0.9,0-2.1,1.7-2.2,3.9L158,100
			h-1.3L157.5,93.3z"/>
		<path class="st2" d="M166.7,92.4c1.1,0,1.7,0.5,1.7,1.6c0,1.8-1.9,2.9-3.7,2.9c0,1.9,0.5,2.3,1.4,2.3c0.6,0,1.4-0.3,1.7-0.8
			c0.1,0.1,0.2,0.2,0.2,0.4c0,0.7-1,1.4-2.2,1.4c-1.3,0-2.2-0.9-2.2-2.7C163.5,94,165.2,92.4,166.7,92.4z M167.2,94.2
			c0-0.7-0.3-1-0.7-1c-0.7,0-1.7,1.2-1.7,3C166.2,96.2,167.2,95.4,167.2,94.2z"/>
		<path class="st2" d="M170.1,93.3l-0.9-0.3v-0.3c0.5-0.2,1-0.3,1.5-0.3c0.2,0,0.4,0,0.6,0.1l-0.5,2.4h0c0.7-1.6,1.7-2.5,2.8-2.5
			c0.7,0,1.2,0.5,1.2,1.4c0,0.5-0.1,1.3-0.2,2l-0.3,1.7c0,0.4-0.1,1-0.1,1.3c0,0.5,0.2,0.7,0.7,0.8v0.3c-0.4,0.2-0.8,0.3-1.2,0.3
			s-0.8-0.3-0.8-0.7c0-0.4,0.1-1.1,0.2-1.6l0.3-1.8c0.1-0.5,0.2-1.1,0.2-1.6c0-0.7-0.3-0.9-0.7-0.9c-0.9,0-2.1,1.7-2.2,3.9l-0.1,2.6
			h-1.3L170.1,93.3z"/>
		<path class="st2" d="M176.5,97.3l1.1-7.7l-1-0.3v-0.3c0.5-0.2,1-0.2,1.5-0.2c0.3,0,0.5,0,0.7,0.1l-1.2,8.1
			c-0.1,0.5-0.1,1.2-0.1,1.7c0,0.5,0.2,0.7,0.7,0.9v0.3c-0.3,0.1-0.7,0.2-1.2,0.2c-0.5,0-0.8-0.3-0.8-0.7
			C176.3,98.9,176.4,97.9,176.5,97.3z"/>
		<path class="st2" d="M179.4,97.4c0-3.2,1.8-5,3.9-5c0.5,0,1.2,0.1,1.7,0.2l-0.5,2.7c-0.2,0.8-0.3,2.2-0.4,2.9c0,1,0.2,1.2,0.7,1.3
			v0.3c-0.4,0.1-0.9,0.2-1.4,0.2c-0.2,0-0.4,0-0.7-0.1l0.4-2.3h0c-0.6,1.5-1.6,2.5-2.4,2.5C180.1,100.2,179.4,99.2,179.4,97.4z
			 M183.3,95.9l0.4-2.6c-0.2-0.1-0.6-0.1-0.8-0.1c-1.3,0-2.3,1.3-2.3,4c0,1.3,0.4,1.9,0.8,1.9C182,99.1,182.9,98.1,183.3,95.9z"/>
		<path class="st2" d="M187,93.3l-0.9-0.3v-0.3c0.5-0.2,1-0.3,1.5-0.3c0.2,0,0.4,0,0.6,0.1l-0.5,2.4h0c0.7-1.6,1.7-2.5,2.8-2.5
			c0.7,0,1.2,0.5,1.2,1.4c0,0.5-0.1,1.3-0.2,2l-0.3,1.7c0,0.4-0.1,1-0.1,1.3c0,0.5,0.2,0.7,0.7,0.8v0.3c-0.4,0.2-0.8,0.3-1.2,0.3
			s-0.8-0.3-0.8-0.7c0-0.4,0.1-1.1,0.2-1.6l0.3-1.8c0.1-0.5,0.2-1.1,0.2-1.6c0-0.7-0.3-0.9-0.7-0.9c-0.9,0-2.1,1.7-2.2,3.9l-0.1,2.6
			h-1.3L187,93.3z"/>
		<path class="st2" d="M193,97.4c0-3.1,1.8-5,3.9-5c0.2,0,0.4,0,0.6,0l0.4-2.8l-1-0.3v-0.3c0.5-0.2,1-0.2,1.6-0.2
			c0.3,0,0.5,0,0.7,0.1l-1.1,6.4c-0.1,0.7-0.3,2.4-0.3,3c0,1,0.2,1.2,0.7,1.3v0.3c-0.5,0.2-0.9,0.2-1.4,0.2c-0.3,0-0.5,0-0.7-0.1
			l0.4-2.3h0c-0.6,1.4-1.5,2.5-2.4,2.5C193.7,100.2,193,99.3,193,97.4z M196.9,95.9l0.4-2.6c-0.2,0-0.5-0.1-0.7-0.1
			c-1.3,0-2.4,1.2-2.4,4c0,1.3,0.4,1.9,0.8,1.9C195.6,99.1,196.5,98.1,196.9,95.9z"/>
		<path class="st2" d="M199.5,98.6c0.4,0.4,0.9,0.7,1.5,0.7c0.7,0,1.3-0.4,1.3-1.1c0-0.5-0.2-0.9-1-1.5l-0.5-0.5
			c-0.7-0.7-0.9-1.1-0.9-1.8c0-1,1-2,2.4-2c1.1,0,1.7,0.3,1.7,0.8c0,0.3-0.1,0.6-0.3,0.8c-0.5-0.5-1.1-0.8-1.7-0.8
			c-0.7,0-1,0.4-1,0.9c0,0.4,0.2,0.7,1,1.4l0.6,0.5c0.7,0.7,1,1.1,1,1.8c0,1.2-1.2,2.3-2.9,2.3c-1,0-1.4-0.3-1.4-0.9
			C199.3,99,199.4,98.8,199.5,98.6z"/>
		<path class="st2" d="M207.9,92.4c1.1,0,1.7,0.5,1.7,1.6c0,1.8-1.9,2.9-3.7,2.9c0,1.9,0.5,2.3,1.4,2.3c0.6,0,1.4-0.3,1.7-0.8
			c0.1,0.1,0.2,0.2,0.2,0.4c0,0.7-1,1.4-2.2,1.4c-1.3,0-2.2-0.9-2.2-2.7C204.7,94,206.4,92.4,207.9,92.4z M208.3,94.2
			c0-0.7-0.3-1-0.7-1c-0.7,0-1.7,1.2-1.7,3C207.3,96.2,208.3,95.4,208.3,94.2z"/>
		<path class="st2" d="M212.2,99.6l5.1-8.7H215c-0.7,0-1,0.3-1.4,1.1l-0.1,0.2H213l0.3-2.1h5.6v0.3l-5.1,8.7h2.6
			c0.7,0,1.1-0.3,1.4-1l0.1-0.3h0.5l-0.4,2.1h-6V99.6z"/>
		<path class="st2" d="M219.4,97.4c0-3.2,1.8-5,3.9-5c0.5,0,1.2,0.1,1.7,0.2l-0.5,2.7c-0.2,0.8-0.3,2.2-0.4,2.9c0,1,0.2,1.2,0.7,1.3
			v0.3c-0.4,0.1-0.9,0.2-1.4,0.2c-0.2,0-0.4,0-0.7-0.1l0.4-2.3h0c-0.6,1.5-1.6,2.5-2.4,2.5C220.1,100.2,219.4,99.2,219.4,97.4z
			 M223.3,95.9l0.4-2.6c-0.2-0.1-0.6-0.1-0.8-0.1c-1.3,0-2.3,1.3-2.3,4c0,1.3,0.4,1.9,0.8,1.9C222,99.1,222.9,98.1,223.3,95.9z"/>
		<path class="st2" d="M226.6,95.9l0.6-6.3l-1-0.3v-0.3c0.5-0.2,0.9-0.2,1.6-0.2c0.2,0,0.5,0,0.7,0.1l-0.9,6.8h0l0.9-0.7
			c0.7-0.5,1.5-1.8,1.7-2.7c0.8,0,1,0.2,1,0.5c0,0.6-1,1.7-2.1,2.5l-0.7,0.5l2,3c0.3,0.4,0.6,0.6,1,0.8v0.3c-0.3,0.2-0.5,0.2-1,0.2
			c-0.5,0-0.9-0.2-1.3-1l-1.6-2.9h0l-0.3,3.8H226L226.6,95.9z"/>
		<path class="st2" d="M235.2,92.4c1.1,0,1.7,0.5,1.7,1.6c0,1.8-1.9,2.9-3.7,2.9c0,1.9,0.5,2.3,1.4,2.3c0.6,0,1.4-0.3,1.7-0.8
			c0.1,0.1,0.2,0.2,0.2,0.4c0,0.7-1,1.4-2.2,1.4c-1.3,0-2.2-0.9-2.2-2.7C231.9,94,233.7,92.4,235.2,92.4z M235.6,94.2
			c0-0.7-0.3-1-0.7-1c-0.7,0-1.7,1.2-1.7,3C234.6,96.2,235.6,95.4,235.6,94.2z"/>
		<path class="st2" d="M238.5,93.3l-0.9-0.3v-0.3c0.5-0.2,1-0.3,1.5-0.3c0.2,0,0.4,0,0.6,0.1l-0.5,2.4h0c0.7-1.6,1.7-2.5,2.8-2.5
			c0.7,0,1.2,0.5,1.2,1.4c0,0.5-0.1,1.3-0.2,2l-0.3,1.7c0,0.4-0.1,1-0.1,1.3c0,0.5,0.2,0.7,0.7,0.8v0.3c-0.4,0.2-0.8,0.3-1.2,0.3
			s-0.8-0.3-0.8-0.7c0-0.4,0.1-1.1,0.2-1.6l0.3-1.8c0.1-0.5,0.2-1.1,0.2-1.6c0-0.7-0.3-0.9-0.7-0.9c-0.9,0-2.1,1.7-2.2,3.9l-0.1,2.6
			h-1.3L238.5,93.3z"/>
		<path class="st2" d="M250.3,92.4c1.1,0,1.7,0.5,1.7,1.6c0,1.8-1.9,2.9-3.7,2.9c0,1.9,0.5,2.3,1.4,2.3c0.6,0,1.4-0.3,1.7-0.8
			c0.1,0.1,0.2,0.2,0.2,0.4c0,0.7-1,1.4-2.2,1.4c-1.3,0-2.2-0.9-2.2-2.7C247.1,94,248.9,92.4,250.3,92.4z M250.8,94.2
			c0-0.7-0.3-1-0.7-1c-0.7,0-1.7,1.2-1.7,3C249.8,96.2,250.8,95.4,250.8,94.2z"/>
		<path class="st2" d="M253.7,93.3l-0.9-0.3v-0.3c0.5-0.2,1-0.3,1.5-0.3c0.2,0,0.4,0,0.6,0.1l-0.5,2.4h0c0.7-1.6,1.7-2.5,2.8-2.5
			c0.7,0,1.2,0.5,1.2,1.4c0,0.5-0.1,1.3-0.2,2l-0.3,1.7c0,0.4-0.1,1-0.1,1.3c0,0.5,0.2,0.7,0.7,0.8v0.3c-0.4,0.2-0.8,0.3-1.2,0.3
			s-0.8-0.3-0.8-0.7c0-0.4,0.1-1.1,0.2-1.6l0.3-1.8c0.1-0.5,0.2-1.1,0.2-1.6c0-0.7-0.3-0.9-0.7-0.9c-0.9,0-2.1,1.7-2.2,3.9l-0.1,2.6
			h-1.3L253.7,93.3z"/>
		<path class="st2" d="M61.5,117.3c0.3-0.1,0.6-0.4,0.6-0.7l0.9-8.2l-0.9-0.2v-0.3c0.5-0.2,0.9-0.2,1.4-0.2c0.4,0,0.9,0,1.2,0.2v0.3
			c-0.3,0.1-0.5,0.3-0.6,0.7l-1,8.2l0.9,0.2v0.3c-0.4,0.2-0.9,0.2-1.4,0.2c-0.4,0-0.9-0.1-1.2-0.2V117.3z M64,112.6L64,112.6
			l1.4-1.3c1.2-1.1,1.7-2,1.7-2.6c0-0.3-0.1-0.5-0.6-0.6v-0.2c0.4-0.2,0.7-0.2,1.1-0.2c0.4,0,0.8,0.2,0.8,0.7c0,0.9-0.7,2-2,3.2
			l-1.1,1l1.5,2.7c0.8,1.4,1.4,1.9,2,2v0.3c-0.4,0.3-0.7,0.3-1.1,0.3c-0.6,0-1.1-0.4-2-2L64,112.6z"/>
		<path class="st2" d="M72.6,109.9c1.3,0,2.2,0.8,2.2,2.6c0,3.3-1.8,5.2-3.3,5.2c-1.2,0-2.2-0.9-2.2-2.8
			C69.2,111.7,70.9,109.9,72.6,109.9z M73.5,112.8c0-1.4-0.5-2-1.2-2c-0.8,0-1.9,1.4-1.9,3.6c0,1.8,0.6,2.4,1.3,2.4
			C72.5,116.9,73.5,115.6,73.5,112.8z"/>
		<path class="st2" d="M76.7,110.9l-0.9-0.3v-0.3c0.5-0.2,1-0.3,1.5-0.3c0.2,0,0.4,0,0.6,0.1l-0.5,2.4h0c0.7-1.6,1.7-2.5,2.8-2.5
			c0.7,0,1.2,0.5,1.2,1.4c0,0.5-0.1,1.3-0.2,2l-0.3,1.7c0,0.4-0.1,1-0.1,1.3c0,0.5,0.2,0.7,0.7,0.8v0.3c-0.4,0.2-0.8,0.3-1.2,0.3
			s-0.8-0.3-0.8-0.7c0-0.4,0.1-1.1,0.2-1.6l0.3-1.8c0.1-0.5,0.2-1.1,0.2-1.6c0-0.7-0.3-0.9-0.7-0.9c-0.9,0-2.1,1.7-2.2,3.9l-0.1,2.6
			h-1.3L76.7,110.9z"/>
		<path class="st2" d="M83.1,114.9l0.5-3.1l0.1-0.9l-0.9-0.3v-0.3c0.5-0.2,1-0.3,1.5-0.3c0.3,0,0.5,0,0.7,0.1l-0.7,4.6
			c-0.1,0.5-0.1,1.3-0.1,1.7c0,0.5,0.2,0.7,0.6,0.9v0.3c-0.3,0.1-0.7,0.2-1.2,0.2c-0.5,0-0.7-0.3-0.7-0.7
			C82.9,116.6,83,115.6,83.1,114.9z M83.8,107.8c0-0.5,0.4-1,0.9-1c0.4,0,0.7,0.3,0.7,0.7c0,0.5-0.4,1-0.9,1
			C84.1,108.5,83.8,108.2,83.8,107.8z"/>
		<path class="st2" d="M87,110.9l-0.9-0.3v-0.3c0.5-0.2,1-0.3,1.5-0.3c0.2,0,0.4,0,0.6,0.1l-0.5,2.4h0c0.7-1.6,1.7-2.5,2.8-2.5
			c0.7,0,1.2,0.5,1.2,1.4c0,0.5-0.1,1.3-0.2,2l-0.3,1.7c0,0.4-0.1,1-0.1,1.3c0,0.5,0.2,0.7,0.7,0.8v0.3c-0.4,0.2-0.8,0.3-1.2,0.3
			s-0.8-0.3-0.8-0.7c0-0.4,0.1-1.1,0.2-1.6l0.3-1.8c0.1-0.5,0.2-1.1,0.2-1.6c0-0.7-0.3-0.9-0.7-0.9c-0.9,0-2.1,1.7-2.2,3.9l-0.1,2.6
			h-1.3L87,110.9z"/>
		<path class="st2" d="M93.7,113.5l0.6-6.3l-1-0.3v-0.3c0.5-0.2,0.9-0.2,1.6-0.2c0.2,0,0.5,0,0.7,0.1l-0.9,6.8h0l0.9-0.7
			c0.7-0.5,1.5-1.8,1.7-2.7c0.8,0,1,0.2,1,0.5c0,0.6-1,1.7-2.1,2.5l-0.7,0.5l2,3c0.3,0.4,0.6,0.6,1,0.8v0.3c-0.3,0.2-0.5,0.2-1,0.2
			c-0.5,0-0.9-0.2-1.3-1l-1.6-2.9h0l-0.3,3.8H93L93.7,113.5z"/>
		<path class="st2" d="M100.1,110.9l-0.9-0.3v-0.3c0.5-0.2,1-0.3,1.5-0.3c0.2,0,0.4,0,0.7,0.1l-0.5,2.2h0l0.8-1.4
			c0.4-0.7,0.8-1,1.3-1c0.3,0,0.5,0.2,0.5,0.6c0,0.2-0.1,0.6-0.2,0.8c-0.2,0-0.3-0.1-0.5-0.1c-1,0-2,1.1-2.1,3.9l-0.1,2.3h-1.3
			L100.1,110.9z"/>
		<path class="st2" d="M104.4,114.9l0.5-3.1l0.1-0.9l-0.9-0.3v-0.3c0.5-0.2,1-0.3,1.5-0.3c0.3,0,0.5,0,0.7,0.1l-0.7,4.6
			c-0.1,0.5-0.1,1.3-0.1,1.7c0,0.5,0.2,0.7,0.6,0.9v0.3c-0.3,0.1-0.7,0.2-1.2,0.2c-0.5,0-0.7-0.3-0.7-0.7
			C104.2,116.6,104.3,115.6,104.4,114.9z M105.1,107.8c0-0.5,0.4-1,0.9-1c0.4,0,0.7,0.3,0.7,0.7c0,0.5-0.4,1-0.9,1
			C105.4,108.5,105.1,108.2,105.1,107.8z"/>
		<path class="st2" d="M108.2,111.8l0-0.9l-0.9-0.3v-0.3c0.5-0.2,1-0.3,1.5-0.3c0.2,0,0.5,0,0.7,0.1l-1,8.4
			c-0.3,2.1-1.1,2.9-2.2,2.9c-0.4,0-0.9-0.2-1.1-0.4v-0.3c1,0,1.8-0.6,2-2.1L108.2,111.8z M108.4,107.8c0-0.5,0.4-1,0.9-1
			c0.4,0,0.7,0.3,0.7,0.7c0,0.5-0.4,1-0.9,1C108.7,108.5,108.4,108.2,108.4,107.8z"/>
		<path class="st2" d="M111.3,113.5l0.6-6.3l-1-0.3v-0.3c0.5-0.2,0.9-0.2,1.6-0.2c0.2,0,0.5,0,0.7,0.1l-0.9,6.8h0l0.9-0.7
			c0.7-0.5,1.5-1.8,1.7-2.7c0.8,0,1,0.2,1,0.5c0,0.6-1,1.7-2.1,2.5l-0.7,0.5l2,3c0.3,0.4,0.6,0.6,1,0.8v0.3c-0.3,0.2-0.5,0.2-1,0.2
			c-0.5,0-0.9-0.2-1.3-1l-1.6-2.9h0l-0.3,3.8h-1.3L111.3,113.5z"/>
		<path class="st2" d="M116.8,116.2c0.4,0.4,0.9,0.7,1.5,0.7c0.7,0,1.3-0.4,1.3-1.1c0-0.5-0.2-0.9-1-1.5l-0.5-0.5
			c-0.7-0.7-0.9-1.1-0.9-1.8c0-1,1-2,2.4-2c1.1,0,1.7,0.3,1.7,0.8c0,0.3-0.1,0.6-0.3,0.8c-0.4-0.5-1.1-0.8-1.7-0.8
			c-0.7,0-1,0.4-1,0.9c0,0.4,0.2,0.7,1,1.4l0.6,0.5c0.7,0.7,1,1.1,1,1.8c0,1.2-1.2,2.3-2.9,2.3c-1,0-1.4-0.3-1.4-0.9
			C116.6,116.6,116.7,116.4,116.8,116.2z"/>
		<path class="st2" d="M123.1,110.9l-0.9-0.3v-0.3c0.5-0.2,1-0.3,1.5-0.3c0.2,0,0.4,0,0.7,0.1l-0.5,2.2h0l0.8-1.4
			c0.4-0.7,0.8-1,1.3-1c0.3,0,0.5,0.2,0.5,0.6c0,0.2-0.1,0.6-0.2,0.8c-0.2,0-0.3-0.1-0.5-0.1c-1,0-2,1.1-2.1,3.9l-0.1,2.3h-1.3
			L123.1,110.9z"/>
		<path class="st2" d="M129.8,110c1.1,0,1.7,0.5,1.7,1.6c0,1.8-1.9,2.9-3.7,2.9c0,1.9,0.5,2.3,1.4,2.3c0.6,0,1.4-0.3,1.7-0.8
			c0.1,0.1,0.2,0.2,0.2,0.4c0,0.7-1,1.4-2.2,1.4c-1.3,0-2.2-0.9-2.2-2.7C126.6,111.6,128.4,110,129.8,110z M130.3,111.8
			c0-0.7-0.3-1-0.7-1c-0.7,0-1.7,1.2-1.7,3C129.3,113.8,130.3,113,130.3,111.8z"/>
		<path class="st2" d="M132.5,114.9l1.1-7.7l-1-0.3v-0.3c0.5-0.2,1-0.2,1.5-0.2c0.3,0,0.5,0,0.7,0.1l-1.2,8.1
			c-0.1,0.5-0.1,1.2-0.1,1.7c0,0.5,0.2,0.7,0.7,0.9v0.3c-0.3,0.1-0.7,0.2-1.2,0.2c-0.5,0-0.8-0.3-0.8-0.7
			C132.3,116.5,132.4,115.5,132.5,114.9z"/>
		<path class="st2" d="M135.4,115c0-3.2,1.8-5,3.9-5c0.5,0,1.2,0.1,1.7,0.2l-0.5,2.7c-0.2,0.8-0.3,2.2-0.4,2.9c0,1,0.2,1.2,0.7,1.3
			v0.3c-0.4,0.1-0.9,0.2-1.4,0.2c-0.2,0-0.4,0-0.7-0.1l0.4-2.3h0c-0.6,1.5-1.6,2.5-2.4,2.5C136.1,117.8,135.4,116.8,135.4,115z
			 M139.3,113.5l0.4-2.6c-0.2-0.1-0.6-0.1-0.8-0.1c-1.3,0-2.3,1.3-2.3,4c0,1.3,0.4,1.9,0.8,1.9C138,116.7,138.9,115.7,139.3,113.5z"
			/>
		<path class="st2" d="M142.8,112.1l0.2-1c-0.3,0-0.5,0-0.9,0v-0.2c0.5-0.7,1.3-1.4,2.1-1.9h0.2l-0.3,1.3h0.4c0.4,0,0.8,0,1.2-0.1
			c0,0.7-0.4,1-1.3,1h-0.4l-0.3,1.6c-0.1,0.7-0.3,2-0.3,2.7c0,1,0.5,1.5,1.2,1.5c0.2,0,0.4,0,0.6-0.1v0.3c-0.1,0.4-0.7,0.7-1.4,0.7
			c-1,0-1.6-0.7-1.6-1.9C142.3,114.9,142.6,113.3,142.8,112.1z"/>
		<path class="st2" d="M146.9,114.9l0.5-3.1l0.1-0.9l-0.9-0.3v-0.3c0.5-0.2,1-0.3,1.5-0.3c0.3,0,0.5,0,0.7,0.1l-0.7,4.6
			c-0.1,0.5-0.1,1.3-0.1,1.7c0,0.5,0.2,0.7,0.6,0.9v0.3c-0.3,0.1-0.7,0.2-1.2,0.2c-0.5,0-0.7-0.3-0.7-0.7
			C146.6,116.6,146.8,115.6,146.9,114.9z M147.6,107.8c0-0.5,0.4-1,0.9-1c0.4,0,0.7,0.3,0.7,0.7c0,0.5-0.4,1-0.9,1
			C147.9,108.5,147.6,108.2,147.6,107.8z"/>
		<path class="st2" d="M153,110c1.1,0,1.7,0.5,1.7,1.6c0,1.8-1.9,2.9-3.7,2.9c0,1.9,0.5,2.3,1.4,2.3c0.6,0,1.4-0.3,1.7-0.8
			c0.1,0.1,0.2,0.2,0.2,0.4c0,0.7-1,1.4-2.2,1.4c-1.3,0-2.2-0.9-2.2-2.7C149.8,111.6,151.5,110,153,110z M153.5,111.8
			c0-0.7-0.3-1-0.7-1c-0.7,0-1.7,1.2-1.7,3C152.5,113.8,153.5,113,153.5,111.8z"/>
		<path class="st2" d="M155.2,116.2c0.4,0.4,0.9,0.7,1.5,0.7c0.7,0,1.3-0.4,1.3-1.1c0-0.5-0.2-0.9-1-1.5l-0.5-0.5
			c-0.7-0.7-0.9-1.1-0.9-1.8c0-1,1-2,2.4-2c1.1,0,1.7,0.3,1.7,0.8c0,0.3-0.1,0.6-0.3,0.8c-0.5-0.5-1.1-0.8-1.7-0.8
			c-0.7,0-1,0.4-1,0.9c0,0.4,0.2,0.7,1,1.4l0.6,0.5c0.7,0.7,1,1.1,1,1.8c0,1.2-1.2,2.3-2.9,2.3c-1,0-1.4-0.3-1.4-0.9
			C155,116.6,155.1,116.4,155.2,116.2z"/>
	</g>
	<g>
		<rect class="st0" width="314" height="125"/>
	</g>
</g>
</svg>
