<?xml version="1.0" encoding="UTF-8" standalone="no"?>
<!-- Created with Inkscape (http://www.inkscape.org/) -->

<svg
   version="1.1"
   id="svg2"
   width="426.30667"
   height="95.26667"
   viewBox="0 0 426.30667 95.26667"
   sodipodi:docname="uvalogo_regular_compact_d_en.eps"
   xmlns:inkscape="http://www.inkscape.org/namespaces/inkscape"
   xmlns:sodipodi="http://sodipodi.sourceforge.net/DTD/sodipodi-0.dtd"
   xmlns="http://www.w3.org/2000/svg"
   xmlns:svg="http://www.w3.org/2000/svg">
  <defs
     id="defs6" />
  <sodipodi:namedview
     id="namedview4"
     pagecolor="#ffffff"
     bordercolor="#000000"
     borderopacity="0.25"
     inkscape:showpageshadow="2"
     inkscape:pageopacity="0.0"
     inkscape:pagecheckerboard="0"
     inkscape:deskcolor="#d1d1d1" />
  <g
     id="g8"
     inkscape:groupmode="layer"
     inkscape:label="ink_ext_XXXXXX"
     transform="matrix(1.3333333,0,0,-1.3333333,0,95.266667)">
    <g
       id="g10"
       transform="scale(0.1)">
      <path
         d="M 566.93,147.613 H 0 V 714.547 H 566.93 V 147.613"
         style="fill:#ffffff;fill-opacity:1;fill-rule:nonzero;stroke:none"
         id="path12" />
      <path
         d="m 240.66,553.109 42.813,42.813 42.82,-42.813 23.68,23.688 -42.801,42.828 42.801,42.797 -23.68,23.703 -42.82,-42.809 -42.813,42.809 -23.695,-23.703 42.82,-42.797 -42.82,-42.828 23.695,-23.688"
         style="fill:#040606;fill-opacity:1;fill-rule:nonzero;stroke:none"
         id="path14" />
      <path
         d="m 240.66,395.551 42.813,42.812 42.82,-42.812 23.68,23.683 -42.801,42.832 42.801,42.797 -23.68,23.703 -42.82,-42.808 -42.813,42.808 -23.695,-23.703 42.82,-42.797 -42.82,-42.832 23.695,-23.683"
         style="fill:#040606;fill-opacity:1;fill-rule:nonzero;stroke:none"
         id="path16" />
      <path
         d="m 240.66,176.266 42.813,42.812 42.82,-42.812 23.68,23.691 -42.801,42.82 42.801,42.805 -23.68,23.691 -42.82,-42.804 -42.813,42.804 -23.695,-23.691 42.82,-42.805 -42.82,-42.82 23.695,-23.691"
         style="fill:#040606;fill-opacity:1;fill-rule:nonzero;stroke:none"
         id="path18" />
      <path
         d="m 412.328,553.734 -49.258,-2.265 c 0,0 7.032,-52.012 4.055,-104.551 -2.863,-50.164 -10.77,-58.984 -10.77,-58.984 -11.128,-20.887 -45.585,-25.977 -63.203,-27.332 -17.672,-1.387 -25.562,-0.43 -25.562,-0.43 0,0 -50.836,1.953 -62.238,25.625 -6.497,13.484 -7.868,39.961 -7.868,39.961 0,0 -0.3,124.058 -0.75,126.859 -0.285,1.5 -10.285,-1.094 -21.867,-1.023 -9.429,0.027 -23.226,0.64 -23.226,0.64 l 4.086,-91.129 -0.551,-53.863 c 0,0 0,-28.898 7.414,-40.422 12.508,-19.558 26.433,-26.55 34.34,-30.254 7.89,-3.75 20.433,-7.48 34.371,-10.261 13.926,-2.813 37.179,-4.239 67.816,3.613 30.656,7.898 44.211,21.797 44.211,21.797 l 23.235,21.836 -0.071,-51.613 48.801,14.367 c 0,0 -6.441,40.898 -6.371,110.582 0.07,69.707 3.406,106.847 3.406,106.847"
         style="fill:#040606;fill-opacity:1;fill-rule:nonzero;stroke:none"
         id="path20" />
      <path
         d="m 750.902,661.652 c 0,30.887 -18.789,30.887 -40.3,30.887 l -1.942,1.613 v 6.629 c 0,4.289 2.731,4.688 7.031,4.688 10.172,0 35.211,-1.981 53.602,-1.981 19.52,0 39.445,1.981 59,1.981 l 1.187,-1.172 v -10.145 l -1.945,-1.613 h -4.664 c -25.437,0 -36.785,-2.695 -36.785,-32.059 V 547.086 c 0,-56.309 10.977,-100.508 78.195,-100.508 70.02,0 92.66,33.652 92.66,99.746 v 101.664 c 0,44.551 0,41.477 -34.367,44.551 l -1.582,3.145 v 7.441 l 1.192,2.344 c 7.019,0 14.847,-1.981 44.16,-1.981 16.461,0 37.166,1.981 49.686,1.981 l 1.55,-2.344 v -8.203 l -2.37,-2.383 c -28.476,0 -38.694,-1.562 -38.694,-21.082 V 531.871 c 0,-71.621 -41.825,-107.949 -112.996,-107.949 -56.7,0 -112.618,19.922 -112.618,85.234 v 152.496"
         style="fill:#ffffff;fill-opacity:1;fill-rule:nonzero;stroke:none"
         id="path22" />
      <path
         d="m 1039.91,600.691 c 0,5.879 -0.28,7.356 -1.46,9.661 -2.61,5.031 -15.53,15.539 -20.48,15.859 l -15.55,0.871 c -1.18,0 -1.48,2.918 -1.48,5.242 0,1.535 0,3.828 1.48,3.828 9.1,0 16.1,0.606 23.4,0.606 13.51,0 34.91,-1.18 40.16,-1.785 l 88.81,-107.223 c 13.46,-16.387 26.66,-31.641 47.76,-52.773 h 1.16 v 128.937 c 0,19.348 -7.03,22.297 -16.43,22.563 l -12.57,0.605 c -1.19,0 -1.79,2.918 -1.79,4.941 0,1.836 0.88,4.735 2.66,4.735 6.43,0 21.68,-1.485 36.03,-1.485 13.2,0 27.27,1.485 35.46,1.485 1.48,0 1.76,-1.18 1.76,-2.371 v -5.547 c 0,-1.445 -0.61,-1.758 -2.63,-1.758 h -7.61 c -20.21,0 -20.21,-10.266 -20.21,-35.18 v -169.66 h -7.05 L 1053.09,603.027 V 468.531 c 0,-25.176 3.54,-28.066 28.72,-29.004 1.16,0 2.05,-2.636 2.05,-4.941 0,-2.363 -0.29,-4.707 -1.17,-4.707 -5.57,0 -24.29,1.465 -36.6,1.465 -14.38,0 -20.85,-1.465 -34.27,-1.465 -1.8,0 -2.1,2.051 -2.1,5.84 0,2.656 0.3,3.808 3.85,3.808 12.25,0 26.34,2.911 26.34,17.891 v 143.273"
         style="fill:#ffffff;fill-opacity:1;fill-rule:nonzero;stroke:none"
         id="path24" />
      <path
         d="m 1325.7,484.078 c 0,-42.754 0.88,-43.047 29.6,-44.551 l 1.48,-2.07 v -5.527 c 0,-1.758 -4.41,-2.051 -7.04,-2.051 -4.11,0 -23.74,1.465 -35.74,1.465 -14.06,0 -28.44,-1.465 -43.66,-1.465 -1.17,0.605 -1.45,2.344 -1.45,5.293 0.28,3.769 0.87,4.355 9.35,4.355 20.23,0 21.1,4.414 21.1,26.7 V 606.27 c 0,16.699 -4.97,20.812 -29.58,20.812 l -0.87,1.434 -0.58,4.726 c 0.28,3.215 2.93,3.528 4.68,3.528 7.89,0 17.28,-1.497 37.19,-1.497 14.64,0 32.25,1.497 43.95,1.497 l 1.46,-2.102 v -5.242 l -1.16,-1.778 -7.91,-0.566 c -11.73,-0.871 -20.82,-2.09 -20.82,-15.551 V 484.078"
         style="fill:#ffffff;fill-opacity:1;fill-rule:nonzero;stroke:none"
         id="path26" />
      <path
         d="m 1396.07,617.129 c -3.22,7.871 -14.92,9.953 -23.16,9.953 l -1.75,1.434 v 7.636 l 3.23,0.606 c 12.31,0 30.19,-1.473 36.65,-1.473 13.45,0 26.63,1.473 40.1,1.473 l 0.88,-0.918 -0.88,-8.203 -13.76,-1.172 c -4.68,-0.242 -9.95,-2.02 -9.95,-6.395 0,-2.363 1.47,-6.183 2.63,-8.82 l 33.69,-87.934 19.08,-43.593 c 2.03,-4.395 2.32,-5.293 3.21,-5.293 0.58,0 1.43,1.211 2.61,4.648 l 41.92,111.086 c 4.68,12.578 8.2,23.457 7.9,26.965 -0.3,4.961 -1.77,7.59 -10.25,8.43 l -15.23,1.523 -1.77,0.879 v 9.051 c 11.45,0 22.84,-1.727 34.3,-1.727 9.09,0 28.41,1.727 30.47,1.727 l 2.33,-1.172 v -6.727 l -2.61,-2.031 -9.12,-0.617 c -5.87,-0.242 -8.21,-3.203 -12.28,-13.477 -27.84,-67.074 -34.58,-88.207 -56.84,-144.73 l -14.95,-38.086 c -1.44,-4.121 -2.03,-4.375 -4.1,-4.375 -2.66,0 -3.23,0.879 -3.8,2.051 l -78.55,189.281"
         style="fill:#ffffff;fill-opacity:1;fill-rule:nonzero;stroke:none"
         id="path28" />
      <path
         d="m 1625.29,606.875 c 0,19.016 -14.36,21.086 -31.36,21.086 -1.18,0 -1.18,1.465 -1.18,2.664 v 3.223 c 0,2.609 5,2.902 15.24,2.902 11.73,0 24.91,-1.477 37.23,-1.477 11.68,0 23.44,1.477 35.16,1.477 h 61.82 c 2.33,0 2.62,-2.668 2.62,-5.859 v -35.754 c 0,-1.172 -0.58,-2.324 -2.03,-2.324 -2.34,0 -7.02,-0.34 -7.34,3.21 l -0.87,9.055 c -1.8,18.742 -14.67,22.004 -31.07,22.004 h -30.17 c -16.44,0 -21.68,-3.547 -21.68,-25.812 v -53.012 c 0,-0.86 1.76,-2.344 2.35,-2.344 l 34.56,1.172 c 17.57,0.586 22.59,6.172 26.97,21.691 0.58,1.703 1.47,2.336 4.66,2.336 2.1,0 3.57,-0.3 3.57,-1.777 0,-6.156 -1.77,-19.633 -1.77,-29.32 0,-15.762 1.77,-24.317 1.77,-29.239 0,-1.797 -2.96,-3.554 -4.72,-3.554 -2.33,0 -4.4,0.898 -4.98,3.828 -1.45,7.89 -1.45,13.535 -2.91,17.578 -1.5,4.355 -5.02,6.445 -13.8,6.699 l -41.6,0.918 c -4.1,0 -4.1,-1.504 -4.1,-3.516 v -69.765 c 0,-21.074 15.55,-21.641 35.75,-21.641 h 15.82 c 15.52,0 26.36,0.274 33.71,4.629 6.45,3.887 15.51,21.738 18.71,29.024 3.84,0 8.83,-0.86 8.83,-2.911 0,-0.898 -0.85,-3.242 -1.48,-4.668 l -8.2,-29.589 c -2.35,-7.93 -3.81,-7.93 -7.63,-7.93 -31.63,0 -62.7,1.465 -105.18,1.465 -9.66,0 -34.28,-1.465 -49.24,-1.465 -0.87,0 -1.76,2.949 -1.76,4.707 0,2.305 0.6,4.941 1.76,4.941 25.55,1.192 32.54,3.828 32.54,30.782 v 136.566"
         style="fill:#ffffff;fill-opacity:1;fill-rule:nonzero;stroke:none"
         id="path30" />
      <path
         d="m 1844.85,542.672 c 3.83,-0.293 7.3,-0.567 11.12,-0.567 23.46,0 52.76,8.184 52.76,42.766 0,25.82 -17.6,42.524 -43.37,42.524 -19.93,0 -20.51,-4.739 -20.51,-13.497 z m -26.37,62.426 c 0,14.648 -0.61,21.984 -19.05,21.984 h -12 c -1.77,0 -2.03,3.223 -2.03,5.555 0,1.445 0.86,4.133 2.03,4.133 16.96,0 34.29,-0.93 51.27,-0.93 13.45,0 26.66,0.93 40.14,0.93 29.89,0 59.19,-19.942 59.19,-50.715 0,-26.645 -24.33,-44.535 -47.18,-48.051 v -0.586 c 11.42,-2.656 23.42,-24.063 26.39,-28.711 l 32.2,-49.258 c 10.27,-15.508 17.02,-18.418 34.57,-19.336 l 1.77,-1.738 v -5.547 c 0,-2.656 -2.07,-2.949 -3.22,-2.949 -6.12,0 -15.22,0.859 -19.64,0.859 -7.01,0 -14.06,-0.859 -21.09,-0.859 -6.71,0 -19.93,19.629 -37.22,50.41 -19.03,33.711 -30.18,52.149 -49.48,52.149 -2.38,0 -5.87,0 -10.28,-0.567 v -71.855 c 0,-10.508 0,-20.489 14.66,-20.489 11.12,0 16.1,0 16.1,-2.324 0,-5.566 -0.87,-7.324 -5.27,-7.324 -15.21,0 -27.83,1.465 -40.44,1.465 -4.98,0 -37.5,-1.465 -41.59,-1.465 -1.77,0 -2.34,3.809 -2.34,6.152 0,2.598 1.16,3.203 7.06,3.496 20.19,0.938 25.45,3.828 25.45,24.043 v 141.528"
         style="fill:#ffffff;fill-opacity:1;fill-rule:nonzero;stroke:none"
         id="path32" />
      <path
         d="m 2032.19,536.539 c -21.1,12.598 -29.61,24.336 -29.61,47.172 0,36.594 29.91,57.121 69.43,57.121 11.15,0 26.97,-3.828 36.91,-8.195 l 2.04,-36.621 v -1.465 c 0,-1.485 -2.89,-2.078 -7.01,-2.078 -3.82,0 -4.37,1.773 -4.66,4.715 -2.08,19.628 -16.13,32.238 -36.96,32.238 -19.91,0 -35.41,-14.043 -35.41,-32.856 0,-21.05 12.84,-29.297 42.15,-44.777 29.02,-15.254 54.23,-28.73 54.23,-65.371 0,-39.844 -36.05,-60.625 -72.65,-60.625 -12.03,0 -31.96,3.828 -43.1,8.457 -2.33,1.23 -3.2,4.98 -4.06,11.406 l -3.54,27.578 c 0,1.758 5.87,1.758 7.6,1.758 0.88,0 1.76,-0.586 2.35,-2.617 6.74,-22.285 21.96,-35.176 45.44,-35.176 20.49,0 40.12,17.871 40.12,37.793 0,19.063 -10.85,30.508 -26.09,39.57 l -37.18,21.973"
         style="fill:#ffffff;fill-opacity:1;fill-rule:nonzero;stroke:none"
         id="path34" />
      <path
         d="m 2205.13,484.078 c 0,-42.754 0.87,-43.047 29.59,-44.551 l 1.49,-2.07 v -5.527 c 0,-1.758 -4.42,-2.051 -7.09,-2.051 -4.07,0 -23.7,1.465 -35.73,1.465 -14.07,0 -28.39,-1.465 -43.63,-1.465 -1.19,0.605 -1.46,2.344 -1.46,5.293 0.27,3.769 0.86,4.355 9.35,4.355 20.26,0 21.1,4.414 21.1,26.7 V 606.27 c 0,16.699 -4.98,20.812 -29.59,20.812 l -0.86,1.434 -0.6,4.726 c 0.29,3.215 2.93,3.528 4.68,3.528 7.91,0 17.28,-1.497 37.2,-1.497 14.68,0 32.25,1.497 43.99,1.497 l 1.45,-2.102 v -5.242 l -1.14,-1.778 -7.98,-0.566 c -11.7,-0.871 -20.77,-2.09 -20.77,-15.551 V 484.078"
         style="fill:#ffffff;fill-opacity:1;fill-rule:nonzero;stroke:none"
         id="path36" />
      <path
         d="m 2360.74,461.188 c 0,-21.641 14.66,-21.641 32.83,-21.641 l 1.77,-1.484 v -4.668 c 0,-3.516 -1.47,-3.516 -6.21,-3.516 -5.85,0 -20.2,1.465 -40.69,1.465 -16.1,0 -41.28,-1.465 -48.36,-1.465 -0.59,2.031 -1.17,3.516 -1.17,5.293 0,0.859 0.31,2.617 1.17,3.203 l 2.97,1.172 h 3.51 c 26.67,0 27.84,9.062 27.84,33.398 v 138.871 l -0.87,13.477 h -39.27 c -22.28,0 -25.82,-14.043 -31.36,-32.82 -0.59,-1.75 -1.77,-2.61 -3.53,-2.61 -4.08,0 -6.78,1.192 -6.78,2.942 0,4.961 3.56,32.195 3.56,55.359 0,1.172 4.13,1.172 8.18,1.172 9.38,-12.578 12.34,-12.578 24.95,-12.578 h 108.97 c 20.52,0 26.37,6.152 33.71,15.215 2.02,0 8.76,0 8.76,-2.637 0,-2.352 -5.84,-26.367 -6.45,-47.488 0,-3.203 -0.89,-9.375 -2.31,-9.375 -2.64,0 -9.39,1.492 -9.39,2.996 l -1.17,14.609 c -1.14,14.922 -8.2,15.215 -20.18,15.215 h -40.48 V 461.188"
         style="fill:#ffffff;fill-opacity:1;fill-rule:nonzero;stroke:none"
         id="path38" />
      <path
         d="m 2541.17,523.043 c 0,2.969 -0.29,6.777 -3.52,11.523 l -66.11,89.379 c -1.76,2.668 -4.41,4.141 -11.22,4.426 l -11.19,0.625 -1.77,0.867 v 7.657 l 1.77,0.89 h 3.54 c 5.01,0 36.59,-1.465 42.16,-1.465 7.4,0 19.22,1.465 28.93,1.465 6.48,0 9.43,0 9.43,-1.789 v -3.555 c 0,-2.91 -0.88,-4.375 -1.75,-4.375 l -17.11,-0.605 c -4.16,0 -6.81,-1.746 -6.81,-5.008 0,-1.191 1.75,-4.14 4.76,-7.93 l 42.16,-58.765 c 2.36,-3.262 5,-6.172 7.98,-8.867 5.59,5.351 31.58,41.058 44.26,59.613 4.73,6.816 7.4,12.414 7.4,14.758 0,4.121 -2.4,5.879 -10.96,6.199 l -14.77,0.605 c 0.34,0 0,4.375 0,5.586 0,1.485 0.34,3.243 1.81,4.133 11.49,-1.172 25.65,-1.465 38.34,-1.465 8.58,0 21.52,1.465 25.37,1.465 l 1.78,-1.172 v -6.808 l -1.16,-1.172 -10.94,-0.567 c -9.44,-0.605 -21.24,-20.644 -26.86,-28.332 l -48.94,-67.004 v -69.296 c 0,-6.211 0.26,-11.563 0.87,-13.321 2.36,-7.031 10.02,-10.937 20.96,-10.937 h 7.95 l 2.65,-1.172 v -8.242 l -1.47,-0.293 h -4.45 c -12.98,0 -25.64,1.504 -38.64,1.504 -13.25,0 -26.86,-1.504 -40.1,-1.504 h -4.15 l -2.37,0.605 v 5.02 c 0,1.738 0.58,3.828 2.95,4.082 l 13.86,1.523 c 8.57,0.879 15.36,3.828 15.36,18.555 v 63.164"
         style="fill:#ffffff;fill-opacity:1;fill-rule:nonzero;stroke:none"
         id="path40" />
      <path
         d="m 1378.19,130.41 -43.48,112.086 h -0.82 L 1296.7,130.41 Z m -86.64,-15.312 -17.23,-55.6253 c -3.14,-10.2344 -4.67,-19.1993 -4.67,-25.5079 0,-12.9101 18.38,-15.664 29.03,-15.664 3.45,0 4.29,-2.3242 4.29,-7.461 0,-3.88667 -0.45,-5.50777 -3.18,-5.50777 -8.96,0 -37.6,2.01172 -48.18,2.01172 -10.55,0 -27.03,-2.01172 -38.83,-2.01172 -7.81,0 -7.81,1.23047 -7.81,6.30857 v 4.336 c 0,1.9336 3.47,2.7148 12.93,3.5156 20.39,1.9531 23.16,5.8594 30.62,27.4609 L 1326.1,272.66 c 7.79,6.621 16.03,15.695 25.78,18.82 l 98.44,-248.1011 c 6.64,-16.4648 13.71,-24.6875 36.44,-24.6875 4.3,0 5.08,-4.707 5.08,-9.0039 0,-4.35547 -2.69,-4.35547 -7.4,-4.35547 -6.37,0 -31.41,2.01172 -46.7,2.01172 -15.66,0 -31.37,-0.78125 -47.01,-2.01172 -5.86,0 -6.27,1.23047 -6.27,6.69927 0,4.2773 2.34,6.2695 7.85,6.2695 5.92,0 25.08,1.1914 25.08,10.6055 0,3.125 -1.56,9.3945 -7.05,23.1054 l -25.08,63.0863 h -93.71"
         style="fill:#ffffff;fill-opacity:1;fill-rule:nonzero;stroke:none"
         id="path42" />
      <path
         d="m 918.148,109.023 c 0,49.223 -33.652,99.293 -86.367,99.293 -54.176,0 -80.242,-42.461 -80.242,-91.91 0,-50.1169 30.449,-101.9529 84.93,-101.9529 53.886,0 81.679,44.1992 81.679,94.5699 M 720.23,106.719 c 0,61.207 52.387,111.273 113.036,111.273 61.464,0 116.25,-42.168 116.25,-103.07 C 949.516,56.0156 892.699,3.04688 834.379,3.04688 773.227,3.04688 720.23,42.8125 720.23,106.719"
         style="fill:#ffffff;fill-opacity:1;fill-rule:nonzero;stroke:none"
         id="path44" />
      <path
         d="m 985.336,181.059 c 0,17.843 -2.91,21.691 -20.156,21.691 h -5 c -5.235,-0.332 -7.578,0.574 -7.578,2.363 0,2.344 0,7.325 3.261,7.325 h 119.997 c 9.95,0 19.91,1.433 30.16,1.433 1.74,0 4.12,-0.301 4.12,-2.644 l 1.17,-33.047 c 0,-2.051 0.32,-4.133 0.32,-6.184 0,-1.172 -2.35,-1.719 -5.32,-1.719 h -4.37 c -0.61,3.469 -1.17,7.012 -2.03,10.207 l -2.64,9.082 c -3.2,11.454 -11.72,13.184 -20.82,13.184 h -41.02 c -21.68,0 -23.73,-6.699 -23.73,-28.125 v -51.539 h 43.4 c 25.14,0 31.31,7.031 31.31,23.141 2.91,0.644 5.86,1.492 7.91,1.492 1.17,0 1.78,-0.614 1.78,-2.078 0,-2.297 -1.17,-6.715 -1.17,-28.102 0,-8.516 1.17,-23.7304 1.17,-30.1562 0,-2.6367 -2.03,-3.789 -5.29,-3.789 -2.35,0 -3.23,2.5976 -4.4,7.3046 -2.03,12.0116 -7.89,22.5586 -32.79,22.5586 H 1011.7 V 36.6992 c 0,-11.4062 1.55,-17.5586 16.47,-18.75 l 15.21,-1.1523 c 1.45,0 2,-1.7969 2,-3.7696 0,-2.3828 0,-5.87886 -3.17,-5.87886 -21.99,0 -31.35,1.44531 -45.116,1.44531 -12.012,0 -33.653,-1.44531 -41.543,-1.44531 -2.403,0 -2.403,2.92966 -2.403,5.21486 0,1.7773 0.313,4.4336 1.524,4.4336 l 12.891,0.8594 c 15.468,1.1914 17.773,4.6875 17.773,21.9531 V 181.059"
         style="fill:#ffffff;fill-opacity:1;fill-rule:nonzero;stroke:none"
         id="path46" />
      <path
         d="m 1703.36,213.102 c 9.11,0 18.5,-0.852 27.91,-0.852 7.39,0 14.98,0.852 22.35,0.852 4.39,0 5.29,-1.145 5.29,-2.063 v -4.676 c 0,-2.05 -0.9,-3.535 -2.11,-3.535 -2.03,0 -5.23,0.606 -8.81,0.606 -17.07,0 -17.07,-8.536 -17.07,-27.657 0,-16.75 3.26,-126.695 3.26,-142.8668 0,-8.2032 4.15,-17.6368 16.78,-17.6368 11.76,0 13.19,-0.5859 13.19,-3.2421 0,-3.53521 -1.72,-6.46489 -2.6,-6.46489 -15.61,0 -27.91,1.5039 -40.3,1.5039 -12.32,0 -24.98,-1.5039 -37.61,-1.5039 -2.07,0 -2.35,1.1914 -2.35,2.92968 v 2.96871 c 0,2.9297 2.66,3.8086 16.18,3.8086 5.89,0 11.15,7.0508 11.15,17.3438 0,31.7383 -1.15,100.2348 -2.35,150.5238 -1.19,0.273 -0.87,0.273 -0.87,0.273 -16.45,-33.809 -37.91,-82.887 -47.9,-109.0585 L 1629.79,1.73828 C 1629.58,0.878906 1628.68,0 1627.17,0 c -1.4,0 -2.63,1.48438 -3.49,5.56641 -1.74,7.40239 -4.4,14.43359 -7.39,21.46489 l -55.54,135.2497 c -2.07,5 -3.81,8.516 -4.94,8.516 -1.25,0 -1.25,-5.871 -1.25,-9.133 0,-23.226 -3.48,-111.9765 -3.48,-126.4101 0,-12.6172 0,-19.9805 25.88,-19.9805 1.74,0 2.03,-1.4453 2.03,-4.9804 0,-1.17191 -0.29,-4.72659 -1.47,-4.72659 -4.14,0 -18.51,1.5039 -34.41,1.5039 -16.7,0 -33.2,-1.5039 -37.34,-1.5039 -0.86,0 -1.76,0.89843 -1.76,2.38281 v 4.39458 c 0,2.6367 2.38,2.9296 5.9,2.9296 24.1,0 27.61,7.3633 27.61,32.9493 0,14.3945 4.97,122.5743 4.97,133.1603 0,15.574 -7.62,22.051 -34.03,22.051 -0.9,0 -1.5,1.433 -1.5,3.222 v 3.817 c 0,1.484 0.9,2.629 2.38,2.629 11.15,0 21.76,-1.457 33.48,-1.457 7.34,0 15,1.457 22.36,1.457 2.09,0 4.14,-4.707 5.57,-8.528 l 63.51,-151.9568 h 1.39 l 67.71,160.4848"
         style="fill:#ffffff;fill-opacity:1;fill-rule:nonzero;stroke:none"
         id="path48" />
      <path
         d="m 1809.67,112.578 c -21.25,12.656 -29.76,24.434 -29.76,47.301 0,36.785 29.98,57.344 69.67,57.344 11.19,0 27.07,-3.789 37.09,-8.223 l 2.05,-36.758 v -1.457 c 0,-1.472 -2.97,-2.039 -7.11,-2.039 -3.81,0 -4.36,1.746 -4.67,4.668 -2.05,19.695 -16.17,32.371 -37.05,32.371 -19.96,0 -35.55,-14.101 -35.55,-32.957 0,-21.144 12.95,-29.367 42.33,-44.957 29.14,-15.293 54.41,-28.789 54.41,-65.5468 0,-40.0195 -36.21,-60.83982 -72.91,-60.83982 -12.07,0 -32.09,3.80859 -43.24,8.51562 -2.35,1.1719 -3.23,5 -4.14,11.4648 l -3.52,27.6172 c 0,1.7578 5.9,1.7578 7.66,1.7578 0.93,0 1.77,-0.5664 2.34,-2.6367 6.78,-22.3242 22.11,-35.2539 45.59,-35.2539 20.58,0 40.25,17.9297 40.25,37.8906 0,19.1211 -10.84,30.586 -26.13,39.6875 l -37.31,22.0507"
         style="fill:#ffffff;fill-opacity:1;fill-rule:nonzero;stroke:none"
         id="path50" />
      <path
         d="m 2023.75,36.2695 c 0,-21.7773 14.67,-21.7773 32.92,-21.7773 l 1.79,-1.4453 V 8.33984 c 0,-3.55468 -1.48,-3.55468 -6.21,-3.55468 -5.86,0 -20.23,1.5039 -40.84,1.5039 -16.17,0 -41.46,-1.5039 -48.49,-1.5039 -0.65,2.08984 -1.18,3.55468 -1.18,5.29294 0,0.8985 0.32,2.6563 1.18,3.2617 l 2.96,1.1524 h 3.52 c 26.76,0 27.93,9.1406 27.93,33.5156 V 187.359 l -0.9,13.516 h -39.37 c -22.37,0 -25.92,-14.102 -31.49,-32.91 -0.57,-1.777 -1.76,-2.656 -3.51,-2.656 -4.16,0 -6.72,1.179 -6.72,2.918 0,5.011 3.47,32.343 3.47,55.597 0,1.153 4.12,1.153 8.25,1.153 9.41,-12.657 12.32,-12.657 24.96,-12.657 h 109.33 c 20.61,0 26.51,6.192 33.83,15.301 2.09,0 8.83,0 8.83,-2.644 0,-2.364 -5.88,-26.446 -6.47,-47.637 0,-3.195 -0.91,-9.375 -2.36,-9.375 -2.66,0 -9.37,1.433 -9.37,2.918 l -1.18,14.719 c -1.21,14.968 -8.24,15.273 -20.31,15.273 h -40.57 V 36.2695"
         style="fill:#ffffff;fill-opacity:1;fill-rule:nonzero;stroke:none"
         id="path52" />
      <path
         d="m 2147.15,183.141 c 0,19.082 -14.43,21.172 -31.44,21.172 -1.17,0 -1.17,1.472 -1.17,2.625 v 3.242 c 0,2.648 5,2.922 15.27,2.922 11.74,0 24.98,-1.446 37.36,-1.446 11.74,0 23.5,1.446 35.22,1.446 h 62.09 c 2.3,0 2.6,-2.629 2.6,-5.86 v -35.871 c 0,-1.18 -0.61,-2.363 -2.08,-2.363 -2.34,0 -7.05,-0.262 -7.34,3.234 l -0.9,9.141 c -1.76,18.808 -14.68,22.051 -31.11,22.051 h -30.31 c -16.43,0 -21.74,-3.547 -21.74,-25.86 v -53.238 c 0,-0.859 1.76,-2.363 2.4,-2.363 l 34.63,1.172 c 17.62,0.625 22.68,6.171 27.05,21.793 0.59,1.757 1.49,2.363 4.75,2.363 2.03,0 3.45,-0.352 3.45,-1.789 0,-6.196 -1.71,-19.711 -1.71,-29.399 0,-15.879 1.71,-24.3942 1.71,-29.3942 0,-1.7774 -2.89,-3.5352 -4.68,-3.5352 -2.33,0 -4.38,0.8789 -4.98,3.8477 -1.47,7.8906 -1.47,13.4957 -2.91,17.5977 -1.53,4.414 -5.06,6.484 -13.87,6.777 l -41.72,0.86 c -4.12,0 -4.12,-1.426 -4.12,-3.477 V 38.7695 c 0,-21.1328 15.58,-21.7382 35.88,-21.7382 h 15.88 c 15.58,0 26.44,0.3125 33.79,4.746 6.52,3.7891 15.58,21.6993 18.78,29.0625 3.87,0 8.83,-0.8789 8.83,-2.9101 0,-0.918 -0.86,-3.2422 -1.44,-4.7266 l -8.24,-29.6875 c -2.35,-7.94919 -3.79,-7.94919 -7.64,-7.94919 -31.76,0 -62.93,1.5039 -105.51,1.5039 -9.71,0 -34.41,-1.5039 -49.39,-1.5039 -0.9,0 -1.78,2.92968 -1.78,4.72659 0,2.3437 0.57,4.9804 1.78,4.9804 25.54,1.1914 32.61,3.8282 32.61,30.8789 V 183.141"
         style="fill:#ffffff;fill-opacity:1;fill-rule:nonzero;stroke:none"
         id="path54" />
      <path
         d="m 2358.13,118.77 c 3.81,-0.313 7.36,-0.606 11.15,-0.606 23.5,0 52.93,8.242 52.93,42.934 0,25.84 -17.63,42.617 -43.49,42.617 -20.02,0 -20.59,-4.695 -20.59,-13.524 z m -26.46,62.613 c 0,14.668 -0.61,22.051 -19.15,22.051 h -12.07 c -1.73,0 -2.03,3.211 -2.03,5.574 0,1.465 0.92,4.094 2.03,4.094 17.07,0 34.48,-0.86 51.51,-0.86 13.53,0 26.76,0.86 40.25,0.86 30,0 59.4,-20 59.4,-50.832 0,-26.743 -24.4,-44.672 -47.33,-48.227 v -0.566 c 11.47,-2.637 23.54,-24.1215 26.45,-28.7895 l 32.34,-49.4141 c 10.24,-15.6054 17.03,-18.5351 34.71,-19.414 l 1.72,-1.7383 V 8.49609 c 0,-2.59765 -2.05,-2.92968 -3.21,-2.92968 -6.21,0 -15.33,0.91797 -19.72,0.91797 -7.07,0 -14.1,-0.91797 -21.14,-0.91797 -6.77,0 -20.01,19.70699 -37.34,50.56639 -19.1,33.8281 -30.31,52.3442 -49.73,52.3442 -2.3,0 -5.86,0 -10.23,-0.606 V 35.8398 c 0,-10.5664 0,-20.5664 14.71,-20.5664 11.11,0 16.17,0 16.17,-2.3242 0,-5.58592 -0.86,-7.38279 -5.35,-7.38279 -15.3,0 -27.89,1.5039 -40.55,1.5039 -4.96,0 -37.56,-1.5039 -41.72,-1.5039 -1.78,0 -2.36,3.80859 -2.36,6.19139 0,2.6367 1.15,3.2227 7.03,3.5156 20.27,0.8985 25.61,3.8282 25.61,24.1407 V 181.383"
         style="fill:#ffffff;fill-opacity:1;fill-rule:nonzero;stroke:none"
         id="path56" />
      <path
         d="m 2569.03,49.5898 c 0,-32.3437 33.24,-32.3437 46.13,-32.3437 40.26,0 83.17,33.2031 83.17,94.6679 0,52.34 -28.19,78.207 -48.52,89.945 -14.08,6.172 -32.62,7.649 -45.23,7.649 -24.09,0 -35.55,-1.738 -35.55,-20.598 z m -26.51,131.1292 c 0,11.152 -2.3,22.617 -13.22,22.617 -3.51,0 -12.89,-1.172 -18.49,-1.172 -1.2,0 -1.2,4.402 -1.2,5.867 0,1.77 0,2.657 5.02,3.801 19.73,4.141 66.7,7.363 91.96,7.363 16.21,0 31.5,-1.476 45.91,-5.265 39.95,-10.907 77.29,-46.465 77.29,-100.551 0,-72.8907 -60.88,-105.83994 -116.72,-105.83994 -27.93,0 -42.64,1.19141 -57.26,1.19141 -14.75,0 -29.42,-0.85938 -44.13,-1.19141 -1.17,0 -1.46,2.63674 -1.46,4.72654 0,2.0508 1.46,4.9805 2.64,4.9805 9.43,1.1914 17.01,1.7773 22.36,5.3125 4.39,2.9297 7.3,7.6562 7.3,17.0312 V 180.719"
         style="fill:#ffffff;fill-opacity:1;fill-rule:nonzero;stroke:none"
         id="path58" />
      <path
         d="m 2847.02,99.3359 -32.64,84.0781 h -0.63 l -27.83,-84.0781 z m -65,-11.4453 -12.89,-41.7383 c -2.41,-7.6367 -3.52,-14.414 -3.52,-19.121 0,-9.6875 13.81,-11.7579 21.76,-11.7579 2.6,0 3.2,-1.7578 3.2,-5.56637 0,-2.94922 -0.31,-4.14062 -2.34,-4.14062 -6.78,0 -28.21,1.5039 -36.17,1.5039 -7.93,0 -20.28,-1.5039 -29.09,-1.5039 -5.88,0 -5.88,0.89843 -5.88,4.72659 v 3.2226 c 0,1.4649 2.68,2.0899 9.71,2.6563 15.28,1.4648 17.33,4.414 22.91,20.5664 l 58.19,169.3207 c 5.85,4.98 12.07,11.757 19.41,14.14 l 73.8,-186.0974 c 5.04,-12.3243 10.33,-18.4961 27.34,-18.4961 3.26,0 3.83,-3.5742 3.83,-6.77737 0,-3.26172 -2.03,-3.26172 -5.57,-3.26172 -4.68,0 -23.53,1.5039 -35,1.5039 -11.77,0 -23.53,-0.60547 -35.3,-1.5039 -4.39,0 -4.69,0.89843 -4.69,5.03909 0,3.2226 1.78,4.6679 5.86,4.6679 4.43,0 18.86,0.8985 18.86,7.9688 0,2.3242 -1.17,7.0312 -5.31,17.3242 l -18.8,47.3242 h -70.31"
         style="fill:#ffffff;fill-opacity:1;fill-rule:nonzero;stroke:none"
         id="path60" />
      <path
         d="m 3136.4,213.102 c 9.14,0 18.54,-0.852 27.95,-0.852 7.31,0 15,0.852 22.34,0.852 4.4,0 5.26,-1.145 5.26,-2.063 v -4.676 c 0,-2.05 -0.86,-3.535 -1.99,-3.535 -2.09,0 -5.36,0.606 -8.87,0.606 -17.01,0 -17.01,-8.536 -17.01,-27.657 0,-16.75 3.2,-126.695 3.2,-142.8668 0,-8.2032 4.14,-17.6368 16.78,-17.6368 11.7,0 13.24,-0.5859 13.24,-3.2421 0,-3.53521 -1.8,-6.46489 -2.68,-6.46489 -15.6,0 -27.91,1.5039 -40.27,1.5039 -12.34,0 -24.98,-1.5039 -37.66,-1.5039 -2.05,0 -2.32,1.1914 -2.32,2.92968 v 2.96871 c 0,2.9297 2.64,3.8086 16.13,3.8086 5.9,0 11.16,7.0508 11.16,17.3438 0,31.7383 -1.12,100.2348 -2.29,150.5238 -1.17,0.273 -0.92,0.273 -0.92,0.273 -16.46,-33.809 -37.91,-82.887 -47.89,-109.0585 L 3062.94,1.73828 C 3062.63,0.878906 3061.71,0 3060.29,0 c -1.49,0 -2.64,1.48438 -3.56,5.56641 C 3055,12.9688 3052.34,20 3049.39,27.0313 l -55.55,135.2497 c -2.07,5 -3.81,8.516 -4.98,8.516 -1.17,0 -1.17,-5.871 -1.17,-9.133 0,-23.226 -3.57,-111.9765 -3.57,-126.4101 0,-12.6172 0,-19.9805 25.88,-19.9805 1.79,0 2.05,-1.4453 2.05,-4.9804 0,-1.17191 -0.26,-4.72659 -1.49,-4.72659 -4.06,0 -18.49,1.5039 -34.37,1.5039 -16.78,0 -33.25,-1.5039 -37.31,-1.5039 -0.88,0 -1.74,0.89843 -1.74,2.38281 v 4.39458 c 0,2.6367 2.31,2.9296 5.8,2.9296 24.14,0 27.68,7.3633 27.68,32.9493 0,14.3945 5,122.5743 5,133.1603 0,15.574 -7.6,22.051 -34.14,22.051 -0.82,0 -1.47,1.433 -1.47,3.222 v 3.817 c 0,1.484 0.9,2.629 2.39,2.629 11.17,0 21.74,-1.457 33.57,-1.457 7.29,0 14.92,1.457 22.27,1.457 2.09,0 4.12,-4.707 5.6,-8.528 l 63.48,-151.9568 h 1.48 l 67.6,160.4848"
         style="fill:#ffffff;fill-opacity:1;fill-rule:nonzero;stroke:none"
         id="path62" />
    </g>
  </g>
</svg>
