<svg id="f454a1d3-2993-4f34-b476-60c769af8f1f" data-name="Layer 1" xmlns="http://www.w3.org/2000/svg" viewBox="0 0 1200 1200"><defs><style>.bbfbf35a-f4d3-4e5b-9445-139b53731437{fill:#ff2903;}.bdfb66a8-d334-47ed-b4d8-4682dd93f1e1{fill:#c7fafb;}</style></defs><rect class="bbfbf35a-f4d3-4e5b-9445-139b53731437" width="1200" height="1200"/><path class="bdfb66a8-d334-47ed-b4d8-4682dd93f1e1" d="M899.18562,599.9998a20.0854,20.0854,0,1,0-40.1708,0c0,142.81952-116.18856,259.00808-259.00808,259.00808S340.98518,742.81932,340.98518,599.9998s116.202-259.00809,259.02156-259.00809a20.0854,20.0854,0,0,0,0-40.17079c-164.96783,0-299.17888,134.21105-299.17888,299.17888,0,164.96741,134.21105,299.16581,299.17888,299.16581C764.97415,899.16561,899.18562,764.96721,899.18562,599.9998Z"/><path class="bdfb66a8-d334-47ed-b4d8-4682dd93f1e1" d="M600.00674,100.00653C324.29821,100.00653,100,324.29127,100,599.9998a20.0854,20.0854,0,0,0,40.1708,0c0-253.56022,206.27572-459.83594,459.83594-459.83594,253.54715,0,459.83594,206.27572,459.83594,459.83594,0,253.54715-206.28879,459.83594-459.83594,459.83594a20.07887,20.07887,0,1,0,0,40.15773C875.70179,1099.99347,1100,875.69525,1100,599.9998,1100,324.29127,875.70179,100.00653,600.00674,100.00653Z"/></svg>