<svg id="f008f712-674d-4a3d-9712-a79984cc69c4" data-name="Layer 1" xmlns="http://www.w3.org/2000/svg" viewBox="0 0 1200 467"><defs><style>.a981bcd1-6f31-4843-b547-9802c62d4bc6{fill:#ff2903;}</style></defs><path class="a981bcd1-6f31-4843-b547-9802c62d4bc6" d="M219.40186,175.21631a3.00254,3.00254,0,1,0-6.00507,0,38.7197,38.7197,0,1,1-38.71869-38.71869,3.00254,3.00254,0,0,0,0-6.00507,44.72278,44.72278,0,1,0,44.72376,44.72376Z"/><path class="a981bcd1-6f31-4843-b547-9802c62d4bc6" d="M174.6781,100.47314a74.82737,74.82737,0,0,0-74.74518,74.74317,3.00254,3.00254,0,0,0,6.00507,0,68.74011,68.74011,0,1,1,68.74011,68.74011,3.00156,3.00156,0,1,0,0,6.00311,74.7432,74.7432,0,0,0,0-149.48639Z"/><path class="a981bcd1-6f31-4843-b547-9802c62d4bc6" d="M754.91571,219.93909a3.00156,3.00156,0,1,0,0-6.00312,38.71967,38.71967,0,1,1,27.38062-66.0993,18.01083,18.01083,0,1,0,25.46917-25.47314,74.26208,74.26208,0,0,0-52.84979-21.89142,3.00253,3.00253,0,1,0,0,6.00506,68.302,68.302,0,0,1,48.6059,20.13025,12.00908,12.00908,0,0,1-16.98139,16.98541,44.72262,44.72262,0,1,0-31.62451,76.34626Z"/><path class="a981bcd1-6f31-4843-b547-9802c62d4bc6" d="M754.91571,249.95953a74.82829,74.82829,0,0,0,74.74323-74.74322,18.03055,18.03055,0,0,0-18.0113-18.01325H754.91571a18.01227,18.01227,0,0,0,0,36.02454h38.93018a3.00254,3.00254,0,1,0,0-6.00507H754.91571a12.00817,12.00817,0,1,1,0-24.01635h56.73193a12.02285,12.02285,0,0,1,12.00818,12.01013,68.73914,68.73914,0,1,1-137.47827,0,3.00253,3.00253,0,1,0-6.00506,0A74.82828,74.82828,0,0,0,754.91571,249.95953Z"/><path class="a981bcd1-6f31-4843-b547-9802c62d4bc6" d="M467.634,159.18958a3.00254,3.00254,0,0,0,0-6.00507,33.49018,33.49018,0,0,0-29.0094,16.88061,3.002,3.002,0,0,0,2.60724,4.489h52.80231a3.00156,3.00156,0,1,0,0-6.00311H447.0412A27.44846,27.44846,0,0,1,467.634,159.18958Z"/><path class="a981bcd1-6f31-4843-b547-9802c62d4bc6" d="M467.634,123.1651a63.39722,63.39722,0,1,0,0,126.79443h34.038a3.00156,3.00156,0,1,0,0-6.00311H467.634a57.39414,57.39414,0,1,1,57.39215-57.3941,12.02122,12.02122,0,0,1-12.00818,12.00818H441.23181a3.003,3.003,0,0,0-2.60724,4.48895,33.48579,33.48579,0,0,0,29.0094,16.87866h34.038a3.00156,3.00156,0,1,0,0-6.00311H467.634a27.45339,27.45339,0,0,1-20.59277-9.35944h65.97674a18.03346,18.03346,0,0,0,18.01325-18.01324A63.4693,63.4693,0,0,0,467.634,123.1651Z"/><path class="a981bcd1-6f31-4843-b547-9802c62d4bc6" d="M338.17505,153.18549a3.00156,3.00156,0,1,0,0,6.00311,16.046,16.046,0,0,1,16.02667,16.02869v17.019A16.04555,16.04555,0,0,1,338.17505,208.263H315.483a16.04555,16.04555,0,0,1-16.02667-16.02673V156.186a3.00257,3.00257,0,0,0-6.00513,0v36.05023a22.05785,22.05785,0,0,0,22.0318,22.0318h22.692a22.05613,22.05613,0,0,0,22.02978-22.0318v-17.019A22.05487,22.05487,0,0,0,338.17505,153.18549Z"/><path class="a981bcd1-6f31-4843-b547-9802c62d4bc6" d="M338.17505,123.16412H281.44312a18.033,18.033,0,0,0-18.0113,18.01325V265.98523a18.01227,18.01227,0,1,0,36.02454,0V241.76532a51.6517,51.6517,0,0,0,16.02667,2.52216h22.692a3.00153,3.00153,0,1,0,0-6.00306H315.483a45.61083,45.61083,0,0,1-17.861-3.60742,3.00318,3.00318,0,0,0-4.17078,2.76734v28.54089a12.00815,12.00815,0,1,1-24.01629,0V141.17737a12.02119,12.02119,0,0,1,12.00818-12.00824h56.73193a46.09848,46.09848,0,0,1,46.04608,46.04816,3.00257,3.00257,0,0,0,6.00513,0A52.112,52.112,0,0,0,338.17505,123.16412Z"/><path class="a981bcd1-6f31-4843-b547-9802c62d4bc6" d="M1086.73322,130.17627a12.00854,12.00854,0,0,1,6.19085,15.81323,3.00191,3.00191,0,1,0,5.49909,2.40955,18.01144,18.01144,0,1,0-33.00226-14.43946L1042.20911,187.009l-23.2099-53.04944A18.01144,18.01144,0,0,0,985.997,148.39905l39.711,90.76794a18.01,18.01,0,0,0,16.50116,10.79254,3.00156,3.00156,0,1,0,0-6.00311,12.00882,12.00882,0,0,1-11.00208-7.197l-39.711-90.77a12.008,12.008,0,1,1,22.00409-9.62231l25.95941,59.33514a3.00213,3.00213,0,0,0,5.49909,0L1070.92,136.36719a12.01023,12.01023,0,0,1,15.81324-6.19092Z"/><path class="a981bcd1-6f31-4843-b547-9802c62d4bc6" d="M940.44183,186.56232A33.41512,33.41512,0,0,0,907.066,153.18451a3.00254,3.00254,0,1,0,0,6.00507,27.37271,27.37271,0,1,1-27.37274,27.37274,3.00153,3.00153,0,0,0-6.00305,0,33.37579,33.37579,0,1,0,66.75158,0Z"/><path class="a981bcd1-6f31-4843-b547-9802c62d4bc6" d="M907.066,243.95642a57.39414,57.39414,0,1,1,57.39209-57.3941,3.00257,3.00257,0,0,0,6.00513,0A63.39722,63.39722,0,1,0,907.066,249.95953a3.00156,3.00156,0,1,0,0-6.00311Z"/><path class="a981bcd1-6f31-4843-b547-9802c62d4bc6" d="M597.09076,129.16815h51.06091a12.02122,12.02122,0,0,1,12.00818,12.00818,3.00156,3.00156,0,1,0,6.00311,0,18.03007,18.03007,0,0,0-18.01129-18.01123H597.09076a52.11035,52.11035,0,0,0-52.05121,52.05121v56.73a18.01227,18.01227,0,1,0,36.02454,0v-56.73a16.04555,16.04555,0,0,1,16.02667-16.02673h33.04962v72.75671a18.01129,18.01129,0,1,0,36.02258,0,3.00156,3.00156,0,0,0-6.00311,0,12.00818,12.00818,0,1,1-24.01636,0V156.18707a3.00233,3.00233,0,0,0-3.00256-3.00256H597.09076a22.05613,22.05613,0,0,0-22.02979,22.0318v56.73a12.00818,12.00818,0,1,1-24.01635,0v-56.73A46.09853,46.09853,0,0,1,597.09076,129.16815Z"/><path class="a981bcd1-6f31-4843-b547-9802c62d4bc6" d="M553.452,284.16156l-8.41065,28.71289h4.4079l2.06164-7.48169h9.38324l2.06165,7.48169h4.4079l-8.4126-28.71289Zm-.85,17.30756,3.59949-12.8996,3.59948,12.8996Z"/><path class="a981bcd1-6f31-4843-b547-9802c62d4bc6" d="M580.665,295.48425l-.24317-4.1253h-8.69525v3.43939h5.45954v14.6391h-5.45954v3.43738H587.9845v-3.43738h-6.71271v-9.34363c0-3.39593,1.61688-5.17688,4.73016-5.17688h4.408v-3.558h-4.568C583.09033,291.359,581.3924,292.69519,580.665,295.48425Z"/><path class="a981bcd1-6f31-4843-b547-9802c62d4bc6" d="M601.32538,286.30286v5.05627H594.5296v3.43939h6.79578v11.88959c0,4.2063,2.10113,6.18689,6.4715,6.18689h5.98339v-3.43738h-5.54058c-1.8996,0-2.82862-.929-2.82862-2.95117V294.79852h8.3692v-3.43939h-8.3692v-5.05627Z"/><rect class="a981bcd1-6f31-4843-b547-9802c62d4bc6" x="628.09198" y="283.99786" width="4.2063" height="4.24786"/><polygon class="a981bcd1-6f31-4843-b547-9802c62d4bc6" points="632.458 291.359 620.328 291.359 620.328 294.798 628.333 294.798 628.333 309.437 619.922 309.437 619.922 312.875 639.657 312.875 639.657 309.437 632.458 309.437 632.458 291.359"/><path class="a981bcd1-6f31-4843-b547-9802c62d4bc6" d="M656.07269,287.59894h6.55262v-3.43738h-6.95783c-4.2063,0-6.14734,2.10315-6.14734,6.06439v1.13257H643.859v3.43939h5.66119v18.07654h4.08569V294.79791h8.69526v-3.43939h-8.69526v-1.09106C653.60583,288.609,654.41425,287.59894,656.07269,287.59894Z"/><rect class="a981bcd1-6f31-4843-b547-9802c62d4bc6" x="676.61194" y="283.99786" width="4.2063" height="4.24786"/><polygon class="a981bcd1-6f31-4843-b547-9802c62d4bc6" points="680.978 291.359 668.848 291.359 668.848 294.798 676.853 294.798 676.853 309.437 668.442 309.437 668.442 312.875 688.177 312.875 688.177 309.437 680.978 309.437 680.978 291.359"/><path class="a981bcd1-6f31-4843-b547-9802c62d4bc6" d="M702.288,294.63507a5.02008,5.02008,0,0,1,5.05433,4.24585l4.16681-.28265c-.81043-4.85273-4.36841-7.7248-9.26264-7.7248-6.02673,0-10.02948,4.44947-10.02948,11.24323s4.00275,11.24322,10.02948,11.24322a9.18917,9.18917,0,0,0,9.38123-8.0885l-4.16278-.24115c-.60889,3.03217-2.63092,4.56806-5.177,4.56806-3.64093,0-5.82318-2.82862-5.82318-7.48163C696.46484,297.46759,698.64709,294.63507,702.288,294.63507Z"/><polygon class="a981bcd1-6f31-4843-b547-9802c62d4bc6" points="729.498 291.359 717.368 291.359 717.368 294.798 725.375 294.798 725.375 309.437 716.963 309.437 716.963 312.875 736.697 312.875 736.697 309.437 729.498 309.437 729.498 291.359"/><rect class="a981bcd1-6f31-4843-b547-9802c62d4bc6" x="725.13208" y="283.99786" width="4.2063" height="4.24786"/><path class="a981bcd1-6f31-4843-b547-9802c62d4bc6" d="M758.00635,308.18384v-8.4917c0-5.501-2.95117-8.81983-8.45215-8.81983-4.93573,0-8.1695,2.75147-8.978,6.87677l4.2854.28461c.56726-2.22571,1.98255-3.51843,4.69257-3.51843,2.91156,0,4.36639,1.69794,4.36639,5.01282l-6.95581,1.45678c-4.53045.88947-6.75421,2.83252-6.75421,6.47156,0,3.558,3.11517,5.90424,7.15936,5.90424,3.11329,0,5.74219-1.45679,6.83533-3.55994.48425,2.1842,1.941,3.19629,4.408,3.19629a16.62476,16.62476,0,0,0,1.86-.12256v-3.35638h-1.21363C758.41156,309.51807,758.00635,309.19391,758.00635,308.18384Zm-4.08576-3.7616c0,3.35639-2.02014,5.58209-5.9458,5.58209-2.22174,0-3.51642-1.05157-3.51642-2.87207,0-1.69793.88953-2.629,3.47693-3.15472l5.98529-1.21369Z"/><path class="a981bcd1-6f31-4843-b547-9802c62d4bc6" d="M764.67285,309.43744v3.43738h19.73486v-3.43738h-7.23645v-18.968c0-4.16485-2.14471-6.30755-6.3095-6.30755h-5.37854v3.43744H770.415a2.42774,2.42774,0,0,1,2.67041,2.66845v19.16962Z"/><polygon class="a981bcd1-6f31-4843-b547-9802c62d4bc6" points="832.041 288.164 832.041 284.161 814.083 284.161 814.083 288.164 820.958 288.164 820.958 308.872 814.083 308.872 814.083 312.874 832.041 312.874 832.041 308.872 825.166 308.872 825.166 288.164 832.041 288.164"/><path class="a981bcd1-6f31-4843-b547-9802c62d4bc6" d="M842.5097,300.13489c0-3.72,2.3443-5.70264,5.337-5.70264,2.872,0,4.28729,1.90155,4.28729,5.6236v12.8186h4.08582V299.00427c0-4.61157-2.38587-8.132-7.199-8.132a6.77976,6.77976,0,0,0-6.75427,4.37037l-.081-3.88416H838.424v21.51593h4.08575Z"/><path class="a981bcd1-6f31-4843-b547-9802c62d4bc6" d="M868.18469,286.30286v5.05627h-6.79376v3.43939h6.79376v11.88959c0,4.2063,2.10315,6.18689,6.46961,6.18689h5.98724v-3.43738H875.101c-1.90155,0-2.83258-.929-2.83258-2.95117V294.79852h8.37311v-3.43939h-8.37311v-5.05627Z"/><path class="a981bcd1-6f31-4843-b547-9802c62d4bc6" d="M896.00348,290.87347c-5.98529,0-9.86737,4.44947-9.86737,11.24323,0,6.83527,3.92163,11.24322,9.988,11.24322a9.20223,9.20223,0,0,0,9.22107-6.75427l-4.28735-.28265a4.76715,4.76715,0,0,1-4.89221,3.27533c-3.35828,0-5.501-2.1427-5.74219-6.266h15.28546v-1.13459C905.70886,295.08179,901.70618,290.87347,896.00348,290.87347Zm-5.58008,9.18158c.52387-3.55993,2.5459-5.42,5.58008-5.42,2.87207,0,4.97522,1.73944,5.29748,5.42Z"/><path class="a981bcd1-6f31-4843-b547-9802c62d4bc6" d="M910.23309,309.43744v3.43738H929.968v-3.43738h-7.23651v-18.968c0-4.16485-2.14472-6.30755-6.30951-6.30755h-5.37848v3.43744h4.93176a2.42923,2.42923,0,0,1,2.67242,2.66845v19.16962Z"/><path class="a981bcd1-6f31-4843-b547-9802c62d4bc6" d="M954.228,309.43744h-7.23651v-18.968c0-4.16485-2.14472-6.30755-6.30951-6.30755h-5.37848v3.43744h4.93182a2.42774,2.42774,0,0,1,2.67041,2.66845v19.16962h-8.4126v3.43738H954.228Z"/><polygon class="a981bcd1-6f31-4843-b547-9802c62d4bc6" points="972.101 291.359 959.968 291.359 959.968 294.798 967.975 294.798 967.975 309.437 959.563 309.437 959.563 312.875 979.298 312.875 979.298 309.437 972.101 309.437 972.101 291.359"/><rect class="a981bcd1-6f31-4843-b547-9802c62d4bc6" x="967.73236" y="283.99786" width="4.2063" height="4.24786"/><path class="a981bcd1-6f31-4843-b547-9802c62d4bc6" d="M998.46313,294.71552a6.72388,6.72388,0,0,0-6.47161-3.84266c-5.29737,0-9.059,4.24787-9.059,10.51581,0,6.10785,3.84265,10.3537,9.22113,10.3537a6.60493,6.60493,0,0,0,6.187-3.59949v3.15479c0,2.99261-1.98066,4.491-5.58008,4.491-2.95117,0-4.28742-1.05164-4.89423-2.87214l-4.28735.28272c.931,3.75958,4.3269,6.22839,9.18158,6.22839,5.98523,0,9.66577-3.03412,9.66577-8.41461V291.35913h-3.92163ZM992.719,308.10339c-3.43743,0-5.50109-2.50836-5.50109-6.75421,0-4.28741,2.0241-6.83331,5.50109-6.83331,3.39985,0,5.66309,2.5459,5.62159,6.83331C998.301,305.595,996.07733,308.10339,992.719,308.10339Z"/><path class="a981bcd1-6f31-4843-b547-9802c62d4bc6" d="M1017.30377,290.87347c-5.98529,0-9.86737,4.44947-9.86737,11.24323,0,6.83527,3.92163,11.24322,9.988,11.24322a9.20224,9.20224,0,0,0,9.22107-6.75427l-4.28736-.28265a4.76715,4.76715,0,0,1-4.89221,3.27533c-3.35638,0-5.501-2.1427-5.74414-6.266h15.28742v-1.13459C1027.00916,295.08179,1023.00647,290.87347,1017.30377,290.87347Zm-5.582,9.18158c.52582-3.55993,2.54785-5.42,5.582-5.42,2.87207,0,4.97522,1.73944,5.29749,5.42Z"/><path class="a981bcd1-6f31-4843-b547-9802c62d4bc6" d="M1043.10071,290.87231a6.78143,6.78143,0,0,0-6.75427,4.37037l-.081-3.88416h-3.76153v21.51593h4.08569V300.13489c0-3.72,2.34436-5.70264,5.33893-5.70264,2.87012,0,4.2854,1.90155,4.2854,5.6236v12.8186h4.08575V299.00427C1050.29968,294.3927,1047.91388,290.87231,1043.10071,290.87231Z"/><path class="a981bcd1-6f31-4843-b547-9802c62d4bc6" d="M1066.18835,309.59833c-3.64093,0-5.82318-2.82862-5.82318-7.48163,0-4.64911,2.18225-7.48163,5.82318-7.48163a5.02008,5.02008,0,0,1,5.05433,4.24585l4.1668-.28265c-.81042-4.85273-4.37036-7.7248-9.26257-7.7248-6.02679,0-10.02954,4.44947-10.02954,11.24323s4.00275,11.24322,10.02954,11.24322a9.18916,9.18916,0,0,0,9.38117-8.0885l-4.16278-.24115C1070.75647,308.06244,1068.73438,309.59833,1066.18835,309.59833Z"/><path class="a981bcd1-6f31-4843-b547-9802c62d4bc6" d="M1090.08374,290.87347c-5.98523,0-9.86737,4.44947-9.86737,11.24323,0,6.83527,3.92364,11.24322,9.988,11.24322a9.20236,9.20236,0,0,0,9.22113-6.75427l-4.28742-.28265a4.76715,4.76715,0,0,1-4.89221,3.27533c-3.35828,0-5.501-2.1427-5.74219-6.266h15.28546v-1.13459C1099.78912,295.08179,1095.78644,290.87347,1090.08374,290.87347Zm-5.58008,9.18158c.52387-3.55993,2.546-5.42,5.58008-5.42,2.87213,0,4.97528,1.73944,5.29749,5.42Z"/><path class="a981bcd1-6f31-4843-b547-9802c62d4bc6" d="M552.48206,338.746v1.13263h-5.66114v3.43939h5.66114v18.07648h4.08374V343.31805h8.69531v-3.43939H556.5658v-1.09112c0-1.65839.80847-2.66846,2.46685-2.66846h6.55262V332.6817h-6.95588C554.4231,332.6817,552.48206,334.78485,552.48206,338.746Z"/><path class="a981bcd1-6f31-4843-b547-9802c62d4bc6" d="M580.46338,339.39343c-6.02686,0-9.9505,4.36841-9.9505,11.24317,0,6.87677,3.92364,11.24322,9.9505,11.24322,5.98529,0,9.94653-4.36645,9.94653-11.24322C590.40991,343.76184,586.44867,339.39343,580.46338,339.39343Zm0,18.7248c-3.64105,0-5.66315-2.791-5.66315-7.48163s2.0221-7.48163,5.66315-7.48163c3.59949,0,5.66113,2.79107,5.66113,7.48163S584.06287,358.11823,580.46338,358.11823Z"/><path class="a981bcd1-6f31-4843-b547-9802c62d4bc6" d="M604.92523,344.00433l-.24316-4.12524h-8.69525v3.43933h5.45947v14.6391h-5.45947V361.395h16.25793v-3.43744H605.532v-9.34363c0-3.39587,1.61689-5.17682,4.73011-5.17682h4.40991v-3.558h-4.57C607.35254,339.87909,605.65265,341.21527,604.92523,344.00433Z"/><path class="a981bcd1-6f31-4843-b547-9802c62d4bc6" d="M653.241,332.03333c-6.83332,0-10.67591,5.37847-10.67591,15.04431,0,9.58477,3.84259,14.96325,10.67591,14.96325,6.83526,0,10.67785-5.37848,10.67785-14.96325C663.91882,337.4118,660.07623,332.03333,653.241,332.03333Zm0,26.04638c-4.04224,0-6.268-3.722-6.268-11.00207s2.22577-11.08112,6.268-11.08112c4.04425,0,6.27,3.80109,6.27,11.08112S657.28522,358.07971,653.241,358.07971Z"/><path class="a981bcd1-6f31-4843-b547-9802c62d4bc6" d="M678.75366,339.3924a6.89759,6.89759,0,0,0-6.55066,3.9652l-.03949-3.47894h-3.88214v27.58423h4.08374v-8.93841a6.9975,6.9975,0,0,0,6.38855,3.35632c6.18891,0,9.01947-5.17682,9.01947-11.24323C687.77313,344.56927,684.94257,339.3924,678.75366,339.3924Zm-.767,18.72686c-3.43737,0-5.62158-2.50842-5.62158-7.48169,0-4.97522,2.22571-7.48358,5.62158-7.48358,3.4394,0,5.501,2.67047,5.501,7.48358S681.42609,358.11926,677.98669,358.11926Z"/><path class="a981bcd1-6f31-4843-b547-9802c62d4bc6" d="M701.92334,339.39343c-5.98529,0-9.86743,4.4494-9.86743,11.24317,0,6.83526,3.92364,11.24322,9.988,11.24322a9.20219,9.20219,0,0,0,9.22106-6.75421l-4.2854-.28265a4.77121,4.77121,0,0,1-4.89416,3.27527c-3.35639,0-5.501-2.14264-5.74219-6.266h15.28546v-1.13458C711.62872,343.60168,707.626,339.39343,701.92334,339.39343Zm-5.58008,9.18152c.52381-3.55994,2.5459-5.42,5.58008-5.42,2.87207,0,4.97522,1.73944,5.29749,5.42Z"/><path class="a981bcd1-6f31-4843-b547-9802c62d4bc6" d="M727.72028,339.3924a6.78148,6.78148,0,0,0-6.75428,4.37042l-.081-3.88416h-3.76154v21.51587h4.0857V348.655c0-3.72009,2.3443-5.70264,5.33893-5.70264,2.87,0,4.28534,1.90155,4.28534,5.62354v12.8186h4.08581V347.52435C734.91925,342.91284,732.53345,339.3924,727.72028,339.3924Z"/><path class="a981bcd1-6f31-4843-b547-9802c62d4bc6" d="M774.66162,350.434h6.30951c-.16009,4.572-2.42535,7.60419-6.1059,7.60419-4.20629,0-6.59216-3.92365-6.59216-10.96057,0-7.07642,2.30481-11.03962,6.38855-11.03962,3.07568,0,4.97522,2.26526,5.78571,5.78174l4.408-.28265c-1.25519-5.74219-4.81318-9.50378-10.23121-9.50378-6.75616,0-10.75891,5.78369-10.75891,15.04431,0,9.74884,4.44751,14.96325,10.63636,14.96325a7.1628,7.1628,0,0,0,6.83532-4.32684l.12055,3.68048h3.43738v-14.6391H774.66162Z"/><path class="a981bcd1-6f31-4843-b547-9802c62d4bc6" d="M798.801,339.39343c-6.02685,0-9.94848,4.36841-9.94848,11.24317,0,6.87677,3.92163,11.24322,9.94848,11.24322,5.98725,0,9.95044-4.36645,9.95044-11.24322C808.7514,343.76184,804.78821,339.39343,798.801,339.39343Zm0,18.7248c-3.639,0-5.66308-2.791-5.66308-7.48163s2.024-7.48163,5.66308-7.48163c3.59943,0,5.66114,2.79107,5.66114,7.48163S802.40039,358.11823,798.801,358.11823Z"/><polygon class="a981bcd1-6f31-4843-b547-9802c62d4bc6" points="823.061 357.068 817.157 339.879 812.749 339.879 820.513 361.395 825.609 361.395 833.375 339.879 828.967 339.879 823.061 357.068"/><path class="a981bcd1-6f31-4843-b547-9802c62d4bc6" d="M847.48352,339.39343c-5.98523,0-9.86737,4.4494-9.86737,11.24317,0,6.83526,3.92163,11.24322,9.988,11.24322a9.20233,9.20233,0,0,0,9.22113-6.75421l-4.28742-.28265a4.76718,4.76718,0,0,1-4.89221,3.27527c-3.35828,0-5.501-2.14264-5.74408-6.266H857.1889v-1.13458C857.1889,343.60168,853.18622,339.39343,847.48352,339.39343Zm-5.582,9.18152c.52576-3.55994,2.54785-5.42,5.582-5.42,2.87213,0,4.97528,1.73944,5.29749,5.42Z"/><path class="a981bcd1-6f31-4843-b547-9802c62d4bc6" d="M871.78339,344.00433l-.24115-4.12524h-8.69532v3.43933h5.45954v14.6391h-5.45954V361.395h16.25794v-3.43744H872.3902v-9.34363c0-3.39587,1.61694-5.17682,4.73211-5.17682h4.40992v-3.558h-4.572C874.21069,339.87909,872.51276,341.21527,871.78339,344.00433Z"/><path class="a981bcd1-6f31-4843-b547-9802c62d4bc6" d="M897.54077,339.3924a6.7798,6.7798,0,0,0-6.75427,4.37042l-.08106-3.88416h-3.76153v21.51587h4.08575V348.655c0-3.72009,2.3443-5.70264,5.337-5.70264,2.872,0,4.28729,1.90155,4.28729,5.62354v12.8186h4.08582V347.52435C904.73975,342.91284,902.35388,339.3924,897.54077,339.3924Z"/><path class="a981bcd1-6f31-4843-b547-9802c62d4bc6" d="M925.92633,339.3924c-2.22577,0-3.88415,1.53784-4.61157,4.1253-.52576-2.708-1.779-4.1253-4.00269-4.1253-2.02215,0-3.47894,1.33624-4.20831,3.68255l-.11859-3.19629h-3.55994v21.51587h3.96314V347.64294c0-3.27331,1.04962-4.69055,2.58746-4.69055,1.57739,0,2.18616,1.29468,2.18616,4.61151v13.83063h3.88019V347.64294c0-3.27331,1.05157-4.69055,2.54986-4.69055,1.49634,0,2.2218,1.17414,2.2218,4.61151v13.83063H930.779V346.876C930.779,341.57861,929.28265,339.3924,925.92633,339.3924Z"/><path class="a981bcd1-6f31-4843-b547-9802c62d4bc6" d="M944.52362,339.39343c-5.98529,0-9.86743,4.4494-9.86743,11.24317,0,6.83526,3.92364,11.24322,9.988,11.24322a9.20221,9.20221,0,0,0,9.22107-6.75421l-4.28736-.28265a4.76718,4.76718,0,0,1-4.89221,3.27527c-3.35638,0-5.501-2.14264-5.74414-6.266H954.229v-1.13458C954.229,343.60168,950.22626,339.39343,944.52362,339.39343Zm-5.582,9.18152c.52576-3.55994,2.54785-5.42,5.582-5.42,2.87207,0,4.97522,1.73944,5.29749,5.42Z"/><path class="a981bcd1-6f31-4843-b547-9802c62d4bc6" d="M970.32092,339.3924a6.7798,6.7798,0,0,0-6.75427,4.37042l-.081-3.88416h-3.76154v21.51587h4.08569V348.655c0-3.72009,2.3443-5.70264,5.33893-5.70264,2.87006,0,4.28534,1.90155,4.28534,5.62354v12.8186h4.08582V347.52435C977.5199,342.91284,975.13409,339.3924,970.32092,339.3924Z"/><path class="a981bcd1-6f31-4843-b547-9802c62d4bc6" d="M993.56873,334.823H989.485v5.05627h-6.79377v3.43939H989.485v11.88953c0,4.20636,2.10314,6.187,6.4696,6.187h5.98724v-3.43738h-5.54052c-1.90155,0-2.83258-.929-2.83258-2.95117V343.31866h8.3731v-3.43939h-8.3731Z"/></svg>