<?xml version="1.0" encoding="utf-8"?>
<!-- Generator: Adobe Illustrator 24.1.0, SVG Export Plug-In . SVG Version: 6.00 Build 0)  -->
<svg version="1.1" id="ab34ead5-9cd9-49e1-a9b7-da3b54183e17"
	 xmlns="http://www.w3.org/2000/svg" xmlns:xlink="http://www.w3.org/1999/xlink" x="0px" y="0px" viewBox="0 0 50 50"
	 style="enable-background:new 0 0 50 50;" xml:space="preserve">
<path d="M5.3,21c0-8.7,7-15.7,15.7-15.7c8.7,0,15.7,7,15.7,15.7s-7,15.7-15.7,15.7c0,0,0,0,0,0C12.4,36.7,5.3,29.7,5.3,21 M50,46.4
	L37.4,33.8c7.1-9.1,5.5-22.3-3.6-29.4S11.5-1.1,4.4,8.1s-5.5,22.3,3.6,29.4c7.6,5.9,18.2,5.9,25.7,0L46.4,50L50,46.4z"/>
</svg>
