<svg id="f74cad28-0531-43fd-b058-958cc265c8c3" data-name="Layer 1" xmlns="http://www.w3.org/2000/svg" viewBox="0 0 50.23249 50"><path d="M30.105,40.76c-.785.1575-1.0725-.3425-1.0725-.765,0-.5275.025-2.2425.025-4.3775a3.78608,3.78608,0,0,0-1.0725-2.955C31.52,32.265,35.21,30.92,35.21,24.8a6.11167,6.11167,0,0,0-1.62251-4.2725,5.78657,5.78657,0,0,0-.1575-4.22s-1.335-.4225-4.345,1.635a15.09035,15.09035,0,0,0-7.91,0c-3.01-2.0575-4.345-1.635-4.345-1.635a5.78638,5.78638,0,0,0-.15749,4.22A6.23723,6.23723,0,0,0,15.05,24.8c0,6.12,3.69,7.4925,7.2,7.8625a3.388,3.388,0,0,0-.995,2.135A3.34715,3.34715,0,0,1,16.64749,33.48a3.31966,3.31966,0,0,0-2.435-1.635s-1.545,0-.105.975A4.0662,4.0662,0,0,1,15.86,35.1425S16.7775,37.99,21.17748,37.04c0,1.32.025,2.585.025,2.955,0,.4225-.2875.9225-1.0725.765a15.80295,15.80295,0,1,1,9.975,0M38.89,0H11.34249A11.34318,11.34318,0,0,0,0,11.3425v27.315A11.34318,11.34318,0,0,0,11.34249,50H38.89A11.34159,11.34159,0,0,0,50.23249,38.6575V11.3425A11.34159,11.34159,0,0,0,38.89,0"/></svg>