<svg id="f91972ec-18b6-470f-8eb0-64c47d2d4dc5" data-name="Layer 1" xmlns="http://www.w3.org/2000/svg" viewBox="0 0 50.23249 50"><path d="M40.75748,40.4475H34.14L34.1375,30.23c0-2.335-.04752-5.34-3.44-5.34-3.445,0-3.975,2.54-3.975,5.1725v10.385H20.11V19.38h6.34748v3.2525H26.55A7.03616,7.03616,0,0,1,32.8175,19.38c6.7025,0,7.94,4.17,7.94,9.5975ZM12.9175,16.435a3.44125,3.44125,0,1,1,3.4425-3.44,3.442,3.442,0,0,1-3.4425,3.44M16.36,40.4475H9.475V19.38H16.36ZM38.89,0H11.34249A11.34318,11.34318,0,0,0,0,11.3425v27.315A11.34318,11.34318,0,0,0,11.34249,50H38.89A11.34159,11.34159,0,0,0,50.23249,38.6575V11.3425A11.34159,11.34159,0,0,0,38.89,0"/></svg>