<svg id="f73b2d1f-7a3d-4234-a627-35f2091764c5" data-name="Layer 1" xmlns="http://www.w3.org/2000/svg" viewBox="0 0 50.2325 50"><path d="M41.515,23.4325c-1.24,4.445-5.7575,5.5775-9.775,4.8925,7.025,1.1975,8.81,5.17,4.9525,9.1425C29.365,45.0125,26.16,35.575,25.34,33.1575c-.2375-.6975-.205-.7125-.445,0-.8225,2.4175-4.025,11.855-11.355,4.31-3.8575-3.9725-2.07-7.945,4.9525-9.1425-4.0175.685-8.535-.4475-9.775-4.8925-.3575-1.2775-.965-9.1525-.965-10.215,0-5.3275,4.655-3.655,7.5275-1.49,3.9825,2.9975,8.265,9.0775,9.8375,12.3425,1.57-3.265,5.855-9.345,9.835-12.3425C37.825,9.5625,42.48,7.89,42.48,13.2175c0,1.0625-.6075,8.9375-.965,10.215M38.89,0H11.3425A11.34319,11.34319,0,0,0,0,11.3425v27.315A11.34319,11.34319,0,0,0,11.3425,50H38.89A11.34159,11.34159,0,0,0,50.2325,38.6575V11.3425A11.34159,11.34159,0,0,0,38.89,0"/></svg>