<svg id="a3305710-e3fd-4cda-a6cb-bf0179884f7d" data-name="Layer 1" xmlns="http://www.w3.org/2000/svg" viewBox="0 0 50.2325 50"><path d="M38.02,21.9325A2.32786,2.32786,0,0,1,36.135,20.41a1.546,1.546,0,0,0-2.72-.3625,2.32992,2.32992,0,1,1,.28-2.1125,1.547,1.547,0,0,0,2.72.36,2.32845,2.32845,0,1,1,1.605,3.6375m1.655,10.455a2.32733,2.32733,0,0,1-3.52-2.8425,1.54584,1.54584,0,0,0-1.67-2.1775A2.32973,2.32973,0,1,1,36.18,26.07a1.54642,1.54642,0,0,0,1.6675,2.18A2.32694,2.32694,0,0,1,39.675,32.3875M32.18249,33.58A1.546,1.546,0,0,0,31.82,36.3a2.3271,2.3271,0,1,1-2.11249-.28,1.54463,1.54463,0,0,0,.36-2.72,2.32868,2.32868,0,1,1,2.115.28m-5.575-15.69a2.32811,2.32811,0,1,1-.42-3.9525,1.54583,1.54583,0,0,0,2.17749-1.67,2.32774,2.32774,0,1,1,1.2975,1.695,1.54642,1.54642,0,0,0-2.18,1.6675,2.32622,2.32622,0,0,1-.875,2.26M26.455,35.8075a2.32571,2.32571,0,0,1-2.41.255,1.54544,1.54544,0,0,0-2.1775,1.6675A2.32821,2.32821,0,1,1,20.57,36.0375,1.54643,1.54643,0,0,0,22.75,34.37a2.32681,2.32681,0,1,1,3.705,1.4375m-9.92-3.7425a1.54464,1.54464,0,0,0-2.72-.36,2.32642,2.32642,0,1,1,.28251-2.115,1.546,1.546,0,0,0,2.72.3625A2.32488,2.32488,0,1,1,16.535,32.065M10.56,17.61a2.3276,2.3276,0,0,1,3.51749,2.845,1.54544,1.54544,0,0,0,1.6675,2.1775A2.32821,2.32821,0,1,1,14.0525,23.93a1.54642,1.54642,0,0,0-1.6675-2.18,2.32722,2.32722,0,0,1-1.825-4.14m7.49-1.19a1.546,1.546,0,0,0,.3625-2.72,2.3271,2.3271,0,1,1,2.11251.28,1.54463,1.54463,0,0,0-.36,2.72,2.32866,2.32866,0,1,1-2.115-.28M38.89,0H11.3425A11.34318,11.34318,0,0,0,0,11.3425v27.315A11.34318,11.34318,0,0,0,11.3425,50H38.89A11.3416,11.3416,0,0,0,50.2325,38.6575V11.3425A11.3416,11.3416,0,0,0,38.89,0"/></svg>